<svg width="32" height="32" viewBox="0 0 32 32" fill="none" xmlns="http://www.w3.org/2000/svg">
<path fill-rule="evenodd" clip-rule="evenodd" d="M26.3333 0H5.66667C2.53333 0 0 2.59829 0 5.81197V26.188C0 29.4017 2.53333 32 5.66667 32H26.3333C29.4667 32 32 29.4017 32 26.188V5.81197C32 2.59829 29.4667 0 26.3333 0ZM7.89335 19.1452H12.8533L13.9467 22.4273C13.9733 22.523 14.0667 22.5914 14.16 22.5777H16.9467C17.08 22.5777 17.12 22.5093 17.08 22.3589L12.2133 8.34182C12.2 8.27345 12.1333 8.23242 12.04 8.23242H8.58668C8.52001 8.2461 8.46668 8.31447 8.48001 8.38285C8.48001 8.6837 8.45335 8.98456 8.40001 9.27174C8.34668 9.43584 8.30668 9.55892 8.26668 9.69567L3.97335 22.3179C3.93335 22.482 3.97335 22.564 4.12001 22.564H6.62668C6.74668 22.5777 6.85335 22.4957 6.88001 22.3726L7.89335 19.1452ZM12.0533 16.4239H8.66668C8.86668 15.8495 9.08001 15.2068 9.25335 14.5093C9.38542 14.086 9.51239 13.6627 9.63741 13.2459C9.71432 12.9894 9.7905 12.7354 9.86668 12.4854C10.0533 11.8974 10.2 11.3093 10.32 10.7213H10.3467C10.3987 10.9043 10.4507 11.0957 10.5051 11.2956C10.5482 11.4544 10.5928 11.6185 10.64 11.788C10.7467 12.1846 10.8667 12.5811 11 13.0051C11.0667 13.217 11.13 13.4256 11.1934 13.6342C11.2567 13.8427 11.32 14.0512 11.3867 14.2632C11.5067 14.6734 11.6267 15.07 11.7467 15.4393C11.8667 15.7948 11.9733 16.1367 12.0533 16.4239ZM20.76 17.8871H24.9867C25.1653 17.8871 25.3369 17.9016 25.5032 17.9157C25.6596 17.929 25.8114 17.9418 25.96 17.9418C26.2667 17.9418 26.52 17.9281 26.7333 17.9008C26.8082 17.896 26.8749 17.8912 26.9333 17.887C27.0414 17.8792 27.1214 17.8734 27.1733 17.8734C27.2667 17.8734 27.3467 17.7914 27.36 17.6957C27.366 17.6408 27.3719 17.5725 27.379 17.4905C27.3879 17.3885 27.3986 17.2654 27.4133 17.1213C27.4267 16.8615 27.44 16.5743 27.44 16.2461C27.44 15.6854 27.36 15.1247 27.1867 14.5777C27.0133 14.0034 26.7333 13.4837 26.3867 13.0187C26.0133 12.5401 25.5333 12.1709 24.9867 11.9247C24.3333 11.6239 23.6267 11.4871 22.92 11.5008C22.0667 11.5008 21.32 11.6102 20.6933 11.9247C20.0667 12.2393 19.52 12.6769 19.08 13.2239C18.6267 13.7846 18.2933 14.4136 18.08 15.0974C17.8533 15.8085 17.7467 16.5333 17.7467 17.2717C17.7467 17.9555 17.84 18.6256 18.0267 19.2683C18.2133 19.9247 18.52 20.5264 18.9467 21.0598C19.4 21.6205 19.9733 22.0717 20.6267 22.3589C21.32 22.6734 22.1733 22.8375 23.1867 22.8375C23.8267 22.8512 24.4533 22.7965 25.08 22.6734C25.5467 22.5914 25.9867 22.4546 26.4133 22.2632C26.4533 22.2358 26.48 22.2085 26.5067 22.1675C26.52 22.1128 26.5333 22.0581 26.5333 22.0034V19.9111C26.5333 19.7743 26.4933 19.747 26.4267 19.8017C26.0533 19.9521 25.6533 20.0615 25.24 20.1162C24.7867 20.2119 24.32 20.2529 23.8533 20.2666C23.2667 20.2803 22.68 20.1572 22.1467 19.9247C21.7467 19.7606 21.4133 19.4734 21.1733 19.1042C20.9467 18.735 20.8133 18.3111 20.76 17.8871ZM23.5733 15.8905H20.76C20.8 15.5487 20.8933 15.2205 21.0533 14.9059C21.4 14.2222 22.0933 13.8256 22.8267 13.8666C23.6133 13.8393 24.32 14.3589 24.56 15.1247C24.6133 15.2888 24.64 15.4529 24.64 15.6307V15.7675C24.5467 15.8358 24.44 15.8632 24.3333 15.8769C24.1734 15.8905 23.92 15.8905 23.5734 15.8905H23.5733Z" fill="white"/>
</svg>
