<svg width="25" height="30" viewBox="0 0 25 30" fill="none" xmlns="http://www.w3.org/2000/svg">
<path fill-rule="evenodd" clip-rule="evenodd" d="M3.74019 9.28701L10.043 4.26782C14.1171 1.02343 16.1542 -0.598769 17.4345 0.202446C18.7149 1.00366 18.0501 3.48462 16.7206 8.44653L16.5952 8.91438C16.1157 10.704 15.8759 11.5989 16.2973 12.3134L16.3198 12.3506C16.7568 13.0565 17.6881 13.3061 19.5508 13.8052C22.9027 14.7033 24.5787 15.1524 24.8727 16.3207L24.8864 16.379C25.1445 17.5545 23.8223 18.6075 21.1779 20.7132L14.8751 25.7324L14.8751 25.7324C10.8009 28.9768 8.76383 30.5989 7.4835 29.7977C6.20317 28.9965 6.86798 26.5155 8.19761 21.5536L8.19761 21.5536L8.32292 21.0859C8.80249 19.2962 9.04228 18.4014 8.62084 17.6869L8.59837 17.6497C8.16141 16.9437 7.23007 16.6942 5.36739 16.1951C2.01546 15.2969 0.339495 14.8479 0.0454677 13.6795L0.031755 13.6213C-0.226333 12.4457 1.09585 11.3928 3.74019 9.28701Z" fill="white"/>
</svg>
