<svg width="67" height="28" viewBox="0 0 67 28" fill="none" xmlns="http://www.w3.org/2000/svg">
<path d="M17.7917 7.55484L17.805 7.54163L17.8173 7.52746C18.5361 6.69812 18.9395 5.73476 18.9395 4.64999C18.9395 2.19282 16.9835 0.549993 14.7395 0.549993C13.739 0.549993 12.8162 0.966096 12.0359 1.74644L2.63684 11.0955L2.6359 11.0964C1.81076 11.9216 1.33946 12.8932 1.33946 14C1.33946 15.0605 1.81389 16.0315 2.6359 16.8535L2.63685 16.8545L12.0241 26.1918C12.7652 27.0395 13.7472 27.5 14.8895 27.5C17.1419 27.5 18.9395 25.4491 18.9395 23.35C18.9395 22.1782 18.5442 21.1976 17.793 20.4464L17.7917 20.4451L11.2992 14L17.7917 7.55484ZM28.65 9.35C25.8076 9.34999 24.05 11.4404 24.05 13.85C24.05 16.3354 25.7848 18.55 28.65 18.55L61.95 18.55C63.3616 18.55 64.5107 18.0061 65.3024 17.1287C66.0885 16.2577 66.5 15.0839 66.5 13.85C66.5 12.6594 66.0841 11.5324 65.294 10.6996C64.4996 9.86225 63.3528 9.35 61.95 9.35L28.65 9.35Z" stroke="white"/>
</svg>
