<svg width="68" height="29" viewBox="0 0 68 29" fill="none" xmlns="http://www.w3.org/2000/svg">
<path d="M50.1582 20.8451L50.1449 20.8583L50.1327 20.8724C49.4139 21.7018 49.0105 22.6651 49.0105 23.7499C49.0105 26.2071 50.9664 27.8499 53.2105 27.8499C54.211 27.8499 55.1337 27.4338 55.9141 26.6535L65.3131 17.3044L65.3141 17.3035C66.1392 16.4783 66.6105 15.5067 66.6105 14.3999C66.6105 13.3394 66.1361 12.3684 65.3141 11.5463L65.3131 11.5454L55.9258 2.20808C55.1847 1.36044 54.2027 0.899902 53.0605 0.899902C50.8081 0.899902 49.0105 2.95081 49.0105 5.0499C49.0105 6.22169 49.4058 7.20231 50.1569 7.95346L50.1582 7.95475L56.6508 14.3999L50.1582 20.8451ZM39.3 19.0499C42.1423 19.0499 43.9 16.9595 43.9 14.5499C43.9 12.0645 42.1652 9.8499 39.3 9.8499H5.99995C4.58833 9.8499 3.43928 10.3938 2.6475 11.2712C1.86143 12.1422 1.44995 13.316 1.44995 14.5499C1.44995 15.7405 1.86587 16.8675 2.65597 17.7003C3.45039 18.5376 4.59715 19.0499 5.99995 19.0499H39.3Z" stroke="white"/>
</svg>
