<svg width="30" height="30" viewBox="0 0 30 30" fill="none" xmlns="http://www.w3.org/2000/svg">
<path d="M15.8787 29.1213C16.7574 30 18.1716 30 21 30H24C26.8284 30 28.2426 30 29.1213 29.1213C30 28.2426 30 26.8284 30 24V6C30 3.17159 30 1.75736 29.1213 0.87868C28.2426 0 26.8284 0 24 0H21C18.1716 0 16.7574 0 15.8787 0.878681C15.1251 1.63221 15.0178 2.7796 15.0025 4.875L18 4.875C18.6213 4.875 19.125 5.37868 19.125 6C19.125 6.62132 18.6213 7.125 18 7.125H15V9.375H19.5C20.1213 9.375 20.625 9.87868 20.625 10.5C20.625 11.1213 20.1213 11.625 19.5 11.625H15V13.875H18C18.6213 13.875 19.125 14.3787 19.125 15C19.125 15.6213 18.6213 16.125 18 16.125H15V18.375L19.5 18.375C20.1213 18.375 20.625 18.8787 20.625 19.5C20.625 20.1213 20.1213 20.625 19.5 20.625L15 20.625V22.875H18C18.6213 22.875 19.125 23.3787 19.125 24C19.125 24.6213 18.6213 25.125 18 25.125H15.0025C15.0178 27.2204 15.1251 28.3678 15.8787 29.1213Z" fill="white"/>
<path d="M9 19.7902L9 7.82124C7.84651 8.29674 6.32498 8.70459 4.50027 8.70458C2.67528 8.70458 1.15355 8.29661 3.61726e-07 7.82102L8.44027e-07 19.7902C3.25553e-06 20.7242 3.01606e-06 21.1913 0.0566509 21.6496C0.123476 22.1902 0.248999 22.7219 0.430998 23.2353C0.585284 23.6706 0.79414 24.0883 1.21186 24.9237L3.41459 29.3292C3.62015 29.7403 4.04035 30 4.5 30C4.95965 30 5.37985 29.7403 5.58541 29.3292L7.78814 24.9237C8.20586 24.0883 8.41472 23.6706 8.569 23.2353C8.751 22.7219 8.87652 22.1902 8.94335 21.6496C9 21.1913 9 20.7242 9 19.7902Z" fill="white"/>
<path d="M9 4.5C9 2.01472 6.98528 1.14546e-06 4.5 0C2.01472 -9.04314e-08 9.04316e-08 2.01472 1.80863e-07 4.5L0 5.93552C0.0395074 5.95538 0.0797932 5.97527 0.12085 5.99518C1.14224 6.4904 2.63269 6.98808 4.50027 6.98808C6.36785 6.98808 7.85831 6.4904 8.87969 5.99518C8.92056 5.97536 8.96067 5.95556 9 5.9358V4.5Z" fill="white"/>
</svg>
