<svg width="41" height="40" viewBox="0 0 41 40" fill="none" xmlns="http://www.w3.org/2000/svg">
<path d="M14.0458 32.2079C14.0458 32.3733 13.8603 32.5057 13.6264 32.5057C13.3603 32.5305 13.1749 32.3982 13.1749 32.2079C13.1749 32.0424 13.3603 31.9102 13.5941 31.9102C13.8361 31.8854 14.0458 32.0177 14.0458 32.2079ZM11.5377 31.8357C11.4813 32.0011 11.6425 32.1913 11.8845 32.241C12.0941 32.3237 12.3361 32.241 12.3845 32.0756C12.4329 31.9102 12.2797 31.72 12.0377 31.6455C11.828 31.5876 11.5941 31.6703 11.5377 31.8357ZM15.1022 31.6951C14.8683 31.753 14.7071 31.9102 14.7313 32.1004C14.7555 32.2658 14.9652 32.3733 15.2071 32.3155C15.441 32.2575 15.6022 32.1004 15.578 31.9349C15.5538 31.7778 15.3361 31.6703 15.1022 31.6951ZM20.4086 0C9.2232 0 0.666748 8.70953 0.666748 20.1816C0.666748 29.3543 6.29578 37.2037 14.3361 39.9663C15.3683 40.1565 15.7313 39.503 15.7313 38.9654C15.7313 38.4526 15.7071 35.6239 15.7071 33.8869C15.7071 33.8869 10.0619 35.1276 8.87642 31.4221C8.87642 31.4221 7.95707 29.0152 6.63448 28.3949C6.63448 28.3949 4.78772 27.0963 6.76353 27.1212C6.76353 27.1212 8.77159 27.2866 9.87642 29.2551C11.6425 32.4477 14.6022 31.5296 15.7555 30.9838C15.941 29.6604 16.4652 28.7423 17.0458 28.1963C12.5377 27.6835 7.98933 27.0136 7.98933 19.0567C7.98933 16.7822 8.60223 15.6408 9.89256 14.185C9.68287 13.6474 8.99739 11.4307 10.1022 8.56893C11.7877 8.03129 15.6667 10.8021 15.6667 10.8021C17.2797 10.3389 19.0135 10.0991 20.7313 10.0991C22.449 10.0991 24.1828 10.3389 25.7958 10.8021C25.7958 10.8021 29.6748 8.02302 31.3603 8.56893C32.4652 11.4391 31.7797 13.6474 31.57 14.185C32.8603 15.6491 33.6506 16.7904 33.6506 19.0567C33.6506 27.0385 28.9006 27.6753 24.3925 28.1963C25.1345 28.8498 25.7635 30.0905 25.7635 32.0342C25.7635 34.8216 25.7394 38.2707 25.7394 38.9489C25.7394 39.4865 26.1103 40.1399 27.1345 39.9497C35.199 37.2037 40.6667 29.3543 40.6667 20.1816C40.6667 8.70953 31.5941 0 20.4086 0ZM8.50545 28.5272C8.40062 28.6099 8.42481 28.8002 8.5619 28.9574C8.69094 29.0897 8.87642 29.1476 8.98126 29.0401C9.0861 28.9574 9.0619 28.7671 8.92481 28.6099C8.79578 28.4776 8.61029 28.4197 8.50545 28.5272ZM7.63449 27.8572C7.57804 27.9648 7.65868 28.0971 7.81997 28.1798C7.94901 28.2625 8.11029 28.2377 8.16675 28.122C8.2232 28.0144 8.14256 27.8821 7.98126 27.7994C7.81997 27.7497 7.69094 27.7745 7.63449 27.8572ZM10.2474 30.8018C10.1184 30.9093 10.1667 31.1575 10.3522 31.3146C10.5377 31.5049 10.7716 31.5296 10.8764 31.3974C10.9813 31.2898 10.9329 31.0416 10.7716 30.8846C10.5942 30.6942 10.3522 30.6695 10.2474 30.8018ZM9.32804 29.5859C9.19901 29.6687 9.19901 29.8837 9.32804 30.074C9.45707 30.2642 9.67481 30.3469 9.77965 30.2642C9.90868 30.1567 9.90868 29.9416 9.77965 29.7514C9.66675 29.5612 9.45707 29.4784 9.32804 29.5859Z" fill="white"/>
</svg>
