<svg width="32" height="32" viewBox="0 0 32 32" fill="none" xmlns="http://www.w3.org/2000/svg">
<path fill-rule="evenodd" clip-rule="evenodd" d="M0.830721 9.31639C0 10.834 0 12.6648 0 16.3263V18.7599C0 25.0014 0 28.1221 1.87452 30.061C3.74903 32 6.76602 32 12.8 32H19.2C25.234 32 28.251 32 30.1255 30.061C32 28.1221 32 25.0014 32 18.7599V16.3263C32 12.6648 32 10.834 31.1693 9.31639C30.3386 7.79873 28.8209 6.85682 25.7855 4.973L22.5855 2.98699C19.377 0.995664 17.7727 0 16 0C14.2273 0 12.623 0.995664 9.41445 2.98699L6.21445 4.973C3.17911 6.85682 1.66144 7.79873 0.830721 9.31639ZM11.2 24.4C10.5373 24.4 10 24.9373 10 25.6C10 26.2627 10.5373 26.8 11.2 26.8H20.8C21.4627 26.8 22 26.2627 22 25.6C22 24.9373 21.4627 24.4 20.8 24.4H11.2Z" fill="white"/>
</svg>
