<svg width="32" height="33" viewBox="0 0 32 33" fill="none" xmlns="http://www.w3.org/2000/svg">
<mask id="mask0_184_122" style="mask-type:alpha" maskUnits="userSpaceOnUse" x="0" y="0" width="32" height="33">
<path fill-rule="evenodd" clip-rule="evenodd" d="M0.009375 0.959961H31.9906C31.9958 0.959961 32 0.964158 32 0.969336V32.9506C32 32.9558 31.9958 32.96 31.9906 32.96H0.009375C0.00419733 32.96 0 32.9558 0 32.9506V0.969336C0 0.964158 0.00419733 0.959961 0.009375 0.959961ZM23.1876 25.8974C21.7501 25.8974 20.8751 25.1474 20.2501 24.0849L17.7501 25.5224C18.6251 27.2724 20.4376 28.5849 23.2501 28.5849C26.1251 28.5849 28.2501 27.0849 28.2501 24.3974C28.2501 21.8349 26.8126 20.7724 24.2501 19.6474L23.5001 19.3349C22.1876 18.7724 21.6251 18.3974 21.6251 17.5224C21.6251 16.7724 22.1876 16.2099 23.0626 16.2099C23.9376 16.2099 24.5001 16.5849 25.0001 17.5224L27.3126 16.0224C26.3751 14.2724 25.0001 13.5849 23.0626 13.5849C20.3751 13.5849 18.6876 15.3349 18.6876 17.5849C18.6876 20.0224 20.1251 21.1474 22.3126 22.0849L23.0626 22.3974C24.4376 23.0224 25.2501 23.3974 25.2501 24.3974C25.2501 25.2724 24.4376 25.8974 23.1876 25.8974ZM9.72954 24.5061C9.69515 24.4495 9.66041 24.3924 9.62505 24.3349L7.18755 25.6474C7.87505 27.1474 9.25005 28.3974 11.6876 28.3974C14.3751 28.3974 16.1876 27.0224 16.1876 23.8974V13.6474H13.1876V24.0224C13.1876 25.5224 12.5626 25.8974 11.5626 25.8974C10.5752 25.8974 10.1815 25.2497 9.72954 24.5061Z" fill="white"/>
</mask>
<g mask="url(#mask0_184_122)">
<rect y="0.959961" width="32" height="32" rx="6" fill="white"/>
</g>
</svg>
