<svg width="40" height="40" viewBox="0 0 40 40" fill="none" xmlns="http://www.w3.org/2000/svg">
<path d="M20 0C16.0444 0 12.1776 1.17298 8.8886 3.37061C5.59962 5.56823 3.03617 8.69181 1.52242 12.3463C0.00866588 16.0009 -0.387401 20.0222 0.384303 23.9018C1.15601 27.7814 3.06082 31.3451 5.85787 34.1421C8.65492 36.9392 12.2186 38.844 16.0982 39.6157C19.9778 40.3874 23.9992 39.9913 27.6537 38.4776C31.3082 36.9638 34.4318 34.4004 36.6294 31.1114C38.827 27.8224 40 23.9556 40 20C39.994 14.6975 37.8849 9.61392 34.1355 5.86449C30.3861 2.11506 25.3025 0.00599929 20 0ZM20 1.33333C22.4313 1.33333 24.63 4.53333 25.9727 9.33333H14.0273C15.37 4.53333 17.5687 1.33333 20 1.33333ZM12.6733 19.3333C12.7038 16.4168 13.0432 13.5117 13.686 10.6667H26.314C26.9568 13.5117 27.2962 16.4168 27.3267 19.3333H12.6733ZM27.3267 20.6667C27.2962 23.5832 26.9568 26.4883 26.314 29.3333H13.686C13.0432 26.4883 12.7038 23.5832 12.6733 20.6667H27.3267ZM16.4753 1.67133C14.8753 3.276 13.542 5.95267 12.632 9.33333H4.69467C7.47604 5.34481 11.7016 2.59654 16.4753 1.67133ZM3.84468 10.6667H12.3047C11.688 13.515 11.3649 16.4191 11.3407 19.3333H1.35001C1.45549 16.2831 2.3124 13.3062 3.84468 10.6667ZM1.35001 20.6667H11.3407C11.3649 23.5809 11.688 26.485 12.3047 29.3333H3.84468C2.3124 26.6938 1.45549 23.7169 1.35001 20.6667ZM4.69467 30.6667H12.632C13.5393 34.0473 14.874 36.724 16.4753 38.3287C11.7016 37.4035 7.47604 34.6552 4.69467 30.6667ZM20 38.6667C17.5687 38.6667 15.37 35.4667 14.0273 30.6667H25.9727C24.63 35.4667 22.4313 38.6667 20 38.6667ZM23.5247 38.3287C25.1247 36.724 26.458 34.0473 27.368 30.6667H35.3053C32.524 34.6552 28.2984 37.4035 23.5247 38.3287ZM36.1553 29.3333H27.6953C28.3121 26.485 28.6351 23.5809 28.6593 20.6667H38.65C38.5445 23.7169 37.6876 26.6938 36.1553 29.3333ZM38.65 19.3333H28.6593C28.6351 16.4191 28.3121 13.515 27.6953 10.6667H36.1553C37.6876 13.3062 38.5445 16.2831 38.65 19.3333ZM27.368 9.33333C26.4607 5.95267 25.126 3.276 23.5247 1.67133C28.2984 2.59654 32.524 5.34481 35.3053 9.33333H27.368Z" fill="white"/>
</svg>
