<svg width="16" height="25" viewBox="0 0 16 25" fill="none" xmlns="http://www.w3.org/2000/svg">
<path d="M3.69 0.6C3.24 0.21 2.73 2.49155e-08 2.16 0C0.870001 -5.63877e-08 7.06844e-07 1.02 6.54391e-07 2.22C6.32098e-07 2.73 0.210001 3.21 0.630001 3.63L6.24 9.27C6.69 9.72 7.2 9.96 7.77 9.96C8.31 9.96 8.82 9.72 9.27 9.27L14.88 3.63C15.33 3.24 15.57 2.73 15.57 2.13C15.57 0.960001 14.49 5.38961e-07 13.38 4.90442e-07C12.75 4.62904e-07 12.24 0.210001 11.85 0.600001L7.77 4.71L3.69 0.6Z" fill="white"/>
<path d="M3.69 15.5707C3.24 15.1807 2.73 14.9707 2.16 14.9707C0.87 14.9707 5.24537e-08 15.9907 0 17.1907C-2.22928e-08 17.7007 0.21 18.1807 0.63 18.6007L6.24 24.2407C6.69 24.6907 7.2 24.9307 7.77 24.9307C8.31 24.9307 8.82 24.6907 9.27 24.2407L14.88 18.6007C15.33 18.2107 15.57 17.7007 15.57 17.1007C15.57 15.9307 14.49 14.9707 13.38 14.9707C12.75 14.9707 12.24 15.1807 11.85 15.5707L7.77 19.6807L3.69 15.5707Z" fill="white"/>
</svg>
