<svg width="30" height="26" viewBox="0 0 30 26" fill="none" xmlns="http://www.w3.org/2000/svg">
<path d="M18.3517 0.039561C18.9666 0.20432 19.3315 0.83635 19.1667 1.45124L13.0599 24.2421C12.8952 24.857 12.2631 25.2219 11.6483 25.0572C11.0334 24.8924 10.6685 24.2604 10.8332 23.6455L16.94 0.854594C17.1048 0.239705 17.7368 -0.125198 18.3517 0.039561Z" fill="white"/>
<path d="M21.8274 4.73048C22.2533 4.25731 22.9821 4.21895 23.4552 4.6448L26.1255 7.04802C27.2571 8.06644 28.1958 8.91122 28.8404 9.67744C29.5182 10.4831 30 11.3488 30 12.4173C30 13.4859 29.5182 14.3515 28.8404 15.1572C28.1958 15.9234 27.2571 16.7682 26.1255 17.7866L23.4552 20.1899C22.9821 20.6157 22.2533 20.5774 21.8274 20.1042C21.4016 19.631 21.4399 18.9022 21.9131 18.4764L24.5203 16.1299C25.7311 15.0401 26.5475 14.3018 27.0763 13.6732C27.5839 13.0699 27.6947 12.7177 27.6947 12.4173C27.6947 12.117 27.5839 11.7648 27.0763 11.1614C26.5475 10.5328 25.7311 9.79453 24.5203 8.70477L21.9131 6.35829C21.4399 5.93244 21.4016 5.20364 21.8274 4.73048Z" fill="white"/>
<path d="M8.0869 6.35829C8.56007 5.93244 8.59843 5.20364 8.17258 4.73048C7.74673 4.25731 7.01793 4.21895 6.54476 4.6448L3.87452 7.04802C2.74288 8.06643 1.80417 8.91122 1.1596 9.67744C0.481808 10.4831 0 11.3488 0 12.4173C0 13.4859 0.481808 14.3515 1.1596 15.1572C1.80417 15.9234 2.74286 16.7682 3.87449 17.7866L6.54476 20.1899C7.01793 20.6157 7.74673 20.5774 8.17258 20.1042C8.59843 19.631 8.56007 18.9022 8.0869 18.4764L5.4797 16.1299C4.26886 15.0401 3.45249 14.3018 2.92367 13.6732C2.41612 13.0699 2.30526 12.7177 2.30526 12.4173C2.30526 12.117 2.41612 11.7648 2.92367 11.1614C3.45249 10.5328 4.26886 9.79453 5.4797 8.70477L8.0869 6.35829Z" fill="white"/>
</svg>
