<svg width="391" height="180" viewBox="0 0 391 180" fill="none" xmlns="http://www.w3.org/2000/svg">
<path d="M0 22.5C0 10.0736 10.0736 0 22.5 0H45V180H22.5C10.0736 180 0 169.926 0 157.5V22.5Z" fill="white"/>
<path d="M99 0H121.5C133.926 0 144 10.0736 144 22.5V180H121.5C109.074 180 99 169.926 99 157.5V0Z" fill="white"/>
<path d="M198 109H243V147C243 165.225 228.225 180 210 180H198V109Z" fill="white"/>
<rect x="297" width="45" height="180" fill="white"/>
<path d="M347 0H369C381.15 0 391 9.84974 391 22V76C391 94.2254 376.225 109 358 109H347V0Z" fill="white"/>
<path d="M347 109H358C376.225 109 391 123.775 391 142V180H347V109Z" fill="white"/>
<path d="M50 0H94V109H83C64.7746 109 50 94.2254 50 76V0Z" fill="white"/>
<path d="M149 0H193V109H182C163.775 109 149 94.2254 149 76V0Z" fill="white"/>
<path d="M248 0H292V76C292 94.2254 277.225 109 259 109H248V0Z" fill="white"/>
</svg>
