<svg width="79" height="44" viewBox="0 0 79 44" fill="none" xmlns="http://www.w3.org/2000/svg">
<path d="M18.4674 0.418235V11.9615C18.4674 12.2543 18.2315 12.4634 18.0125 12.3589L10.1605 8.8875C10.0257 8.82476 9.92456 8.65747 9.92456 8.49018V0.418235C9.92456 0.188206 10.0762 0 10.2616 0H18.1136C18.3158 0 18.4674 0.188206 18.4674 0.418235Z" fill="white"/>
<path d="M8.18903 43.371H0.336997C0.151649 43.371 0 43.1828 0 42.9528V0.418235C0 0.188206 0.151649 0 0.336997 0H8.18903C8.37438 0 8.52603 0.188206 8.52603 0.418235V42.9319C8.54288 43.1619 8.37438 43.371 8.18903 43.371Z" fill="white"/>
<path d="M28.0719 43.371H20.2199C20.0345 43.371 19.8829 43.1828 19.8829 42.9528V0.418235C19.8829 0.188206 20.0345 0 20.2199 0H28.0719C28.2573 0 28.4089 0.188206 28.4089 0.418235V42.9319C28.4089 43.1619 28.2573 43.371 28.0719 43.371Z" fill="white"/>
<path d="M38.3503 0.418235V20.7654C38.3503 21.0581 38.1144 21.2673 37.8953 21.1627L30.0433 17.6914C29.9085 17.6286 29.8074 17.4613 29.8074 17.294V0.418235C29.8074 0.188206 29.959 0 30.1444 0H37.9964C38.1986 0 38.3503 0.188206 38.3503 0.418235Z" fill="white"/>
<path d="M48.2917 26.077V42.9528C48.2917 43.1828 48.14 43.371 47.9547 43.371H40.1026C39.9173 43.371 39.7656 43.1828 39.7656 42.9528V22.6056C39.7656 22.3129 40.0015 22.1037 40.2206 22.2083L48.0726 25.6797C48.2074 25.7215 48.2917 25.8888 48.2917 26.077Z" fill="white"/>
<path d="M58.2331 0.418235V29.5483C58.2331 29.8411 57.9972 30.0502 57.7781 29.9456L49.9261 26.4743C49.7913 26.4116 49.6902 26.2443 49.6902 26.077V0.418235C49.6902 0.188206 49.8418 0 50.0272 0H57.8792C58.0814 0 58.2331 0.188206 58.2331 0.418235Z" fill="white"/>
<path d="M67.8207 43.371H59.9855C59.8001 43.371 59.6485 43.1828 59.6485 42.9528V0.418235C59.6485 0.188206 59.8001 0 59.9855 0H67.8375C68.0229 0 68.1745 0.188206 68.1745 0.418235V42.9319C68.1745 43.1619 68.0229 43.371 67.8207 43.371Z" fill="white"/>
<path d="M78.1159 39.2723V42.9528C78.1159 43.1828 77.9643 43.371 77.7789 43.371H69.9269C69.7416 43.371 69.5899 43.1828 69.5899 42.9528V35.8009C69.5899 35.5082 69.8258 35.2991 70.0449 35.4036L77.8969 38.875C78.0148 38.9168 78.1159 39.0841 78.1159 39.2723Z" fill="white"/>
<path d="M78.1159 29.9038V0.418235C78.1159 0.188206 77.9643 0 77.7789 0H69.9269C69.7416 0 69.5899 0.188206 69.5899 0.418235V33.3752C69.5899 33.6679 69.8258 33.8771 70.0449 33.7725L77.8969 30.3011C78.0148 30.2593 78.1159 30.092 78.1159 29.9038Z" fill="white"/>
</svg>
