<svg width="491" height="38" viewBox="0 0 491 38" fill="none" xmlns="http://www.w3.org/2000/svg">
<g clip-path="url(#clip0_1_112)">
<path d="M28.944 23.474H35.964V29.36H28.242L27.162 38H21.06L22.14 29.36H14.202L13.122 38H7.074L8.154 29.36H1.08V23.474H8.856L9.99 14.726H2.916V8.84H10.692L11.772 0.199997H17.82L16.74 8.84H24.678L25.758 0.199997H31.806L30.726 8.84H37.746L37.8 14.726H30.024L28.944 23.474ZM22.842 23.474L23.976 14.726H16.038L14.904 23.474H22.842ZM69.1592 29.9H51.6092L48.2612 38H39.2972L56.1452 0.199997H64.7852L81.6872 38H72.5072L69.1592 29.9ZM66.4052 23.258L60.4112 8.786L54.4172 23.258H66.4052ZM103.062 0.199997C106.41 0.199997 109.308 0.757998 111.756 1.874C114.24 2.99 116.148 4.574 117.48 6.626C118.812 8.678 119.478 11.108 119.478 13.916C119.478 16.688 118.812 19.118 117.48 21.206C116.148 23.258 114.24 24.842 111.756 25.958C109.308 27.038 106.41 27.578 103.062 27.578H95.448V38H86.7V0.199997H103.062ZM102.576 20.45C105.204 20.45 107.202 19.892 108.57 18.776C109.938 17.624 110.622 16.004 110.622 13.916C110.622 11.792 109.938 10.172 108.57 9.056C107.202 7.904 105.204 7.328 102.576 7.328H95.448V20.45H102.576ZM153.084 7.328H140.988V38H132.348V7.328H120.306V0.199997H153.084V7.328ZM193.245 0.199997V38H184.497V22.502H167.325V38H158.577V0.199997H167.325V15.104H184.497V0.199997H193.245ZM228.312 29.9H210.762L207.414 38H198.45L215.298 0.199997H223.938L240.84 38H231.66L228.312 29.9ZM225.558 23.258L219.564 8.786L213.57 23.258H225.558ZM250.705 0.199997L258.535 11.648L266.365 0.199997H276.625L264.043 18.29L277.651 38H267.337L258.535 25.472L249.841 38H239.743L253.243 18.668L240.607 0.199997H250.705ZM306.517 29.9H288.967L285.619 38H276.655L293.503 0.199997H302.143L319.045 38H309.865L306.517 29.9ZM303.763 23.258L297.769 8.786L291.775 23.258H303.763ZM324.057 0.199997H354.567V7.166H332.751V14.942H343.227C347.799 14.942 351.273 15.896 353.649 17.804C356.061 19.712 357.267 22.466 357.267 26.066C357.267 29.846 355.935 32.78 353.271 34.868C350.607 36.956 346.845 38 341.985 38H324.057V0.199997ZM341.499 31.52C343.731 31.52 345.441 31.088 346.629 30.224C347.817 29.324 348.411 28.028 348.411 26.336C348.411 23.024 346.107 21.368 341.499 21.368H332.751V31.52H341.499ZM363.925 0.199997H372.619V24.824L390.655 0.199997H398.863V38H390.223V13.43L372.187 38H363.925V0.199997ZM442.942 0.199997V38H434.194V22.502H417.022V38H408.274V0.199997H417.022V15.104H434.194V0.199997H442.942ZM470.449 38.648C466.525 38.648 462.979 37.802 459.811 36.11C456.679 34.418 454.213 32.096 452.413 29.144C450.649 26.156 449.767 22.808 449.767 19.1C449.767 15.392 450.649 12.062 452.413 9.11C454.213 6.122 456.679 3.782 459.811 2.09C462.979 0.397999 466.525 -0.448001 470.449 -0.448001C474.373 -0.448001 477.901 0.397999 481.033 2.09C484.165 3.782 486.631 6.122 488.431 9.11C490.231 12.062 491.131 15.392 491.131 19.1C491.131 22.808 490.231 26.156 488.431 29.144C486.631 32.096 484.165 34.418 481.033 36.11C477.901 37.802 474.373 38.648 470.449 38.648ZM470.449 31.196C472.681 31.196 474.697 30.692 476.497 29.684C478.297 28.64 479.701 27.2 480.709 25.364C481.753 23.528 482.275 21.44 482.275 19.1C482.275 16.76 481.753 14.672 480.709 12.836C479.701 11 478.297 9.578 476.497 8.57C474.697 7.526 472.681 7.004 470.449 7.004C468.217 7.004 466.201 7.526 464.401 8.57C462.601 9.578 461.179 11 460.135 12.836C459.127 14.672 458.623 16.76 458.623 19.1C458.623 21.44 459.127 23.528 460.135 25.364C461.179 27.2 462.601 28.64 464.401 29.684C466.201 30.692 468.217 31.196 470.449 31.196Z" fill="white"/>
</g>
<defs>
<clipPath id="clip0_1_112">
<rect width="491" height="38" fill="white"/>
</clipPath>
</defs>
</svg>
