<svg width="196" height="100" viewBox="0 0 196 100" fill="none" xmlns="http://www.w3.org/2000/svg">
<g clip-path="url(#clip0_9_389)">
<path d="M1.05585 10.1649C1.05585 8.73942 1.02742 7.57389 0.942139 6.43679H3.13106L3.24477 8.6582H3.33005C4.0976 7.34647 5.3809 6.12408 7.65916 6.12408C9.53944 6.12408 10.9608 7.26119 11.5619 8.88562H11.6187C12.0451 8.11807 12.5853 7.51703 13.1579 7.09062C13.9823 6.46521 14.896 6.12408 16.2037 6.12408C18.0271 6.12408 20.7318 7.31804 20.7318 12.102V20.216H18.2829V12.4147C18.2829 9.76687 17.3164 8.17087 15.294 8.17087C13.8686 8.17087 12.7599 9.22269 12.3335 10.4491C12.2198 10.7903 12.1345 11.2451 12.1345 11.6999V20.212H9.68564V11.9599C9.68564 9.76687 8.7191 8.17087 6.8104 8.17087C5.24282 8.17087 4.10572 9.42168 3.70773 10.6766C3.5656 11.0461 3.50874 11.4725 3.50874 11.903V20.216H1.05585V10.1649Z" fill="#E8793E"/>
<path d="M25.9664 13.7833C26.0233 17.1702 28.1878 18.5672 30.6935 18.5672C32.4885 18.5672 33.5688 18.2545 34.5109 17.8565L34.9374 19.6515C34.0561 20.0495 32.5454 20.5044 30.3524 20.5044C26.1086 20.5044 23.5745 17.7144 23.5745 13.5559C23.5745 9.39731 26.0233 6.12408 30.0397 6.12408C34.5394 6.12408 35.7333 10.0836 35.7333 12.6177C35.7333 13.1294 35.6765 13.5274 35.648 13.7873H25.9664V13.7833ZM33.3129 11.9883C33.3414 10.3923 32.6591 7.91502 29.8407 7.91502C27.3066 7.91502 26.1979 10.2501 25.9949 11.9883H33.3129Z" fill="#E8793E"/>
<path d="M50.5117 0V16.6585C50.5117 17.8809 50.5401 19.2779 50.6254 20.216H48.3756L48.2619 17.8241H48.205C47.4375 19.3632 45.7562 20.5288 43.5064 20.5288C40.1763 20.5288 37.6137 17.7104 37.6137 13.5234C37.5853 8.93843 40.4321 6.12005 43.7906 6.12005C45.8983 6.12005 47.3197 7.11501 47.9492 8.22775H48.006V0H50.5117ZM48.006 12.0452C48.006 11.7325 47.9776 11.306 47.8923 10.9933C47.5228 9.39734 46.1542 8.08967 44.278 8.08967C41.687 8.08967 40.1478 10.3679 40.1478 13.4137C40.1478 16.2037 41.5164 18.5104 44.2211 18.5104C45.9024 18.5104 47.4375 17.4017 47.8923 15.5214C47.9776 15.1803 48.006 14.8392 48.006 14.4371V12.0452Z" fill="#E8793E"/>
<path d="M57.2288 2.56254C57.2572 3.41537 56.6318 4.10169 55.6328 4.10169C54.7515 4.10169 54.1221 3.41943 54.1221 2.56254C54.1221 1.70565 54.7759 0.994965 55.6896 0.994965C56.6034 0.994965 57.2288 1.67723 57.2288 2.56254ZM54.4388 20.216V6.43681H56.9445V20.216H54.4388Z" fill="#E8793E"/>
<path d="M68.5063 20.2161L68.3073 18.4779H68.2221C67.4545 19.5582 65.9722 20.5288 64.0067 20.5288C61.2167 20.5288 59.7913 18.5632 59.7913 16.5692C59.7913 13.2391 62.7518 11.4157 68.0759 11.4441V11.1599C68.0759 10.0228 67.7632 7.97191 64.9448 7.97191C63.6615 7.97191 62.3254 8.36989 61.3588 8.9953L60.7903 7.34244C61.9274 6.60332 63.5802 6.12006 65.3184 6.12006C69.5338 6.12006 70.5572 8.9953 70.5572 11.7568V16.9103C70.5572 18.1043 70.614 19.2739 70.7846 20.212H68.5063V20.2161ZM68.1368 13.1823C65.4037 13.1254 62.301 13.6087 62.301 16.2849C62.301 17.9094 63.3813 18.6769 64.6646 18.6769C66.4596 18.6769 67.5967 17.5398 67.9946 16.3702C68.0799 16.1144 68.1368 15.8301 68.1368 15.5742V13.1823Z" fill="#E8793E"/>
<path d="M45.6913 73.534C45.6913 74.4883 45.3176 75.3493 44.5663 76.1209C39.5062 80.1616 33.7964 82.18 27.4408 82.18C19.9034 82.18 13.4829 79.524 8.17096 74.2122C2.85907 68.9003 0.203125 62.4797 0.203125 54.9423C0.203125 47.405 2.85907 41.0169 8.17096 35.705C13.5032 30.3728 19.9278 27.7047 27.4408 27.7047C33.8857 27.7047 39.7093 29.8286 44.9075 34.0725C45.541 34.6613 45.8618 35.4898 45.8618 36.5578C45.8618 37.0817 45.7725 37.5569 45.5897 37.9873C45.407 38.4178 45.1511 38.7995 44.8222 39.1285C44.4933 39.4574 44.1074 39.7133 43.6648 39.896C43.2221 40.0788 42.751 40.1681 42.2515 40.1681C41.3215 40.1681 40.4931 39.827 39.7662 39.1447C38.0402 37.7843 36.1396 36.7406 34.0644 36.0136C31.9892 35.2867 29.78 34.9253 27.4408 34.9253C21.9015 34.9253 17.1703 36.8868 13.2432 40.8138C9.36086 44.6962 7.41966 49.4071 7.41966 54.9423C7.41966 60.4776 9.36086 65.225 13.2432 69.1074C17.1459 73.0101 21.8812 74.9634 27.4408 74.9634C31.5506 74.9634 35.2259 73.8873 38.4707 71.7308V61.1761H29.0733C28.054 61.1761 27.1971 60.8309 26.5027 60.1365C25.8082 59.4461 25.463 58.5892 25.463 57.5658C25.463 57.0663 25.5524 56.5952 25.7351 56.1525C25.9179 55.7099 26.1737 55.3241 26.5027 54.9951C26.8316 54.6662 27.2134 54.4103 27.6438 54.2276C28.0743 54.0448 28.5535 53.9555 29.0733 53.9555H42.1135C42.5886 53.9555 43.0434 54.053 43.4739 54.2438C43.9044 54.4388 44.2861 54.6987 44.6151 55.0276C44.944 55.3566 45.2039 55.7424 45.3989 56.185C45.5897 56.6277 45.6872 57.0866 45.6872 57.5658V73.534H45.6913Z" fill="#D7D7D7"/>
<path d="M27.4407 82.383C19.883 82.383 13.3528 79.6824 8.02469 74.3584C2.70062 69.0302 0 62.5 0 54.9423C0 47.3847 2.70062 40.8869 8.02469 35.5629C13.3731 30.2144 19.9033 27.5016 27.4407 27.5016C33.9059 27.5016 39.8229 29.6581 45.0374 33.9141C45.7237 34.5517 46.0648 35.437 46.0648 36.5578C46.0648 37.1061 45.9673 37.6137 45.7765 38.0686C45.5856 38.5234 45.3135 38.9295 44.9683 39.2747C44.6191 39.6199 44.2089 39.896 43.7459 40.0869C43.283 40.2778 42.7794 40.3753 42.2555 40.3753C41.2768 40.3753 40.3915 40.0138 39.6321 39.2991C37.9467 37.9711 36.0461 36.9274 33.9993 36.2086C31.9526 35.4938 29.7474 35.1324 27.4448 35.1324C21.9867 35.1324 17.2596 37.0939 13.3894 40.9641C9.56384 44.7896 7.62671 49.4924 7.62671 54.9505C7.62671 60.4086 9.56384 65.1478 13.3894 68.9693C17.2352 72.8152 21.9623 74.7645 27.4448 74.7645C31.4531 74.7645 35.0958 73.7086 38.2716 71.6253V61.3832H29.0773C28.0052 61.3832 27.0915 61.0137 26.3645 60.2867C25.6376 59.5598 25.268 58.646 25.268 57.5739C25.268 57.05 25.3655 56.5465 25.5564 56.0835C25.7472 55.6165 26.0193 55.2063 26.3645 54.8611C26.7097 54.5159 27.1158 54.2438 27.5707 54.053C28.0255 53.8621 28.5331 53.7646 29.0814 53.7646H42.1215C42.6251 53.7646 43.1083 53.8662 43.5672 54.0733C44.018 54.2763 44.4241 54.5525 44.7693 54.8977C45.1145 55.2429 45.3947 55.6571 45.5937 56.116C45.7968 56.583 45.8983 57.0744 45.8983 57.578V73.5461C45.8983 74.5492 45.5003 75.467 44.7165 76.2752C39.6239 80.3444 33.8166 82.3993 27.4448 82.3993L27.4407 82.383ZM27.4407 27.9077C20.0171 27.9077 13.5843 30.5799 8.31303 35.8512C3.06611 41.0981 0.406108 47.5187 0.406108 54.9423C0.406108 62.366 3.06611 68.8231 8.31303 74.07C13.5599 79.3169 19.9967 81.9769 27.4407 81.9769C33.7191 81.9769 39.4371 79.9545 44.4404 75.9625C45.1308 75.2518 45.4881 74.4274 45.4881 73.534V57.5658C45.4881 57.1191 45.3947 56.6845 45.216 56.2663C45.0333 55.852 44.7856 55.4825 44.4769 55.1698C44.1683 54.8611 43.8028 54.6093 43.3967 54.4266C42.9946 54.2479 42.5642 54.1545 42.1174 54.1545H29.0773C28.5859 54.1545 28.1311 54.2398 27.725 54.4103C27.3189 54.5809 26.9574 54.8246 26.6488 55.1332C26.3402 55.4419 26.0965 55.8074 25.9259 56.2256C25.7554 56.6399 25.6701 57.0907 25.6701 57.5617C25.6701 58.5242 25.999 59.3405 26.6488 59.9903C27.2986 60.64 28.1148 60.969 29.0773 60.969H38.6777V71.8364L38.5884 71.8973C35.3233 74.066 31.5749 75.1665 27.4448 75.1665C21.8527 75.1665 17.0281 73.1766 13.1051 69.2495C9.2024 65.3468 7.22466 60.5344 7.22466 54.9423C7.22466 49.3502 9.2024 44.5703 13.1051 40.6676C17.0525 36.7203 21.877 34.7182 27.4448 34.7182C29.7961 34.7182 32.046 35.0877 34.1334 35.8187C36.2248 36.5497 38.162 37.6137 39.896 38.9823C40.5945 39.6361 41.3824 39.961 42.2555 39.961C42.7266 39.961 43.1774 39.8757 43.5916 39.7052C44.0058 39.5346 44.3754 39.2909 44.684 38.9823C44.9927 38.6737 45.2364 38.3122 45.4069 37.9061C45.5775 37.5041 45.6628 37.0492 45.6628 36.5538C45.6628 35.5507 45.3622 34.7669 44.7734 34.2187C39.6442 30.0317 33.8125 27.9077 27.4448 27.9077H27.4407Z" fill="#D7D7D7"/>
<path d="M53.6143 78.5697V31.315C53.6143 30.8155 53.7036 30.3444 53.8863 29.9017C54.0691 29.4591 54.3249 29.0732 54.6539 28.7443C54.9828 28.4154 55.3646 28.1595 55.7951 27.9768C56.2255 27.794 56.7047 27.7047 57.2246 27.7047H70.3662C72.6567 27.7047 74.8212 28.1473 76.8518 29.0326C78.8823 29.918 80.6529 31.12 82.1636 32.6429C83.6744 34.1658 84.8724 35.9405 85.7536 37.9711C86.639 40.0016 87.0816 42.1662 87.0816 44.4566C87.0816 45.9552 86.8948 47.4131 86.5212 48.8304C86.1476 50.2477 85.5912 51.5879 84.8521 52.8468C84.113 54.1057 83.1952 55.2753 82.0946 56.3556C80.994 57.4358 79.7148 58.3821 78.265 59.1983L89.1243 76.596C89.5101 77.2336 89.7051 77.8915 89.7051 78.5697C89.7051 79.0936 89.6157 79.5687 89.433 79.9992C89.2502 80.4296 88.9944 80.8114 88.6654 81.1403C88.3365 81.4693 87.9507 81.7251 87.508 81.9079C87.0654 82.0906 86.5943 82.18 86.0948 82.18C84.8236 82.18 83.7921 81.5911 82.9962 80.4093L70.9794 61.172H60.8349V78.5697C60.8349 79.5687 60.4815 80.4215 59.779 81.1241C59.0764 81.8267 58.2236 82.18 57.2246 82.18C56.2255 82.18 55.3727 81.8267 54.6701 81.1241C53.9676 80.4215 53.6143 79.5687 53.6143 78.5697ZM60.8308 34.9212V53.9555H70.3621C71.6779 53.9555 72.9166 53.7078 74.074 53.2082C75.2314 52.7087 76.2345 52.0224 77.0873 51.1493C77.9401 50.2761 78.6143 49.2649 79.1138 48.1197C79.6133 46.9745 79.861 45.7521 79.861 44.4607C79.861 43.1693 79.6092 41.9063 79.1138 40.7488C78.6143 39.5914 77.932 38.5802 77.071 37.7193C76.2101 36.8583 75.1989 36.1761 74.0415 35.6766C72.8841 35.177 71.6576 34.9293 70.3662 34.9293H60.8349L60.8308 34.9212Z" fill="#D7D7D7"/>
<path d="M86.0949 82.383C84.7588 82.383 83.6582 81.7576 82.8297 80.523L70.8658 61.3751H61.0339V78.5697C61.0339 79.6215 60.6603 80.5271 59.9171 81.2662C59.178 82.0054 58.2683 82.383 57.2206 82.383C56.1728 82.383 55.2631 82.0094 54.524 81.2662C53.7849 80.5271 53.4072 79.6215 53.4072 78.5697V31.315C53.4072 30.7911 53.5047 30.2875 53.6956 29.8246C53.8864 29.3616 54.1585 28.9474 54.5037 28.6022C54.8489 28.257 55.255 27.9849 55.7099 27.794C56.1647 27.6031 56.6723 27.5057 57.2206 27.5057H70.3622C72.673 27.5057 74.8822 27.9565 76.929 28.8499C78.9758 29.7393 80.783 30.9698 82.3018 32.5008C83.8206 34.0318 85.043 35.8471 85.9365 37.8899C86.8299 39.9366 87.2807 42.1459 87.2807 44.4566C87.2807 45.9673 87.0898 47.4537 86.7121 48.8832C86.3345 50.3127 85.7659 51.6813 85.0227 52.9524C84.2795 54.2235 83.3414 55.4175 82.2328 56.5018C81.1728 57.5414 79.9301 58.4714 78.5453 59.2714L89.295 76.4904C89.7011 77.1564 89.9041 77.859 89.9041 78.5737C89.9041 79.1179 89.8067 79.6256 89.6158 80.0804C89.4249 80.5352 89.1528 80.9413 88.8076 81.2865C88.4625 81.6317 88.0482 81.9079 87.5853 82.0988C87.1223 82.2896 86.6187 82.3871 86.0949 82.3871V82.383ZM60.6278 60.969H71.0892L83.1668 80.2997C83.9222 81.4246 84.8846 81.9729 86.0949 81.9729C86.5659 81.9729 87.0167 81.8876 87.4309 81.717C87.8452 81.5464 88.2147 81.3028 88.5234 80.9941C88.832 80.6855 89.0757 80.3241 89.2462 79.918C89.4168 79.5118 89.5021 79.057 89.5021 78.5656C89.5021 77.924 89.3153 77.2986 88.9538 76.6975L77.9808 59.1212L78.1676 59.0156C79.5971 58.2115 80.8723 57.2653 81.9566 56.2053C83.0409 55.1454 83.9547 53.9798 84.6816 52.7412C85.4085 51.5026 85.9608 50.1665 86.3304 48.7735C86.7 47.3806 86.8868 45.9227 86.8868 44.4485C86.8868 42.1946 86.4441 40.0382 85.575 38.0442C84.706 36.0461 83.512 34.2755 82.0256 32.777C80.5393 31.2825 78.7727 30.0804 76.7787 29.2113C74.7807 28.3423 72.6283 27.8996 70.3744 27.8996H57.2328C56.7414 27.8996 56.2865 27.9849 55.8804 28.1554C55.4743 28.326 55.1129 28.5697 54.8042 28.8783C54.4956 29.187 54.2519 29.5565 54.0814 29.9708C53.9108 30.385 53.8255 30.8358 53.8255 31.3068V78.5656C53.8255 79.5159 54.1504 80.3078 54.8205 80.9738C55.4824 81.6358 56.2906 81.9688 57.2287 81.9688C58.1668 81.9688 58.9668 81.6439 59.6369 80.9738C60.307 80.3038 60.6319 79.5037 60.6319 78.5656V60.9649L60.6278 60.969ZM70.3622 54.1585H60.6278V34.7181H70.3622C71.678 34.7181 72.941 34.974 74.1187 35.4857C75.2924 35.9933 76.3361 36.6959 77.2133 37.5731C78.0905 38.4503 78.793 39.4899 79.3007 40.6676C79.8083 41.8453 80.0682 43.1205 80.0682 44.4607C80.0682 45.8008 79.8124 47.0354 79.3007 48.2009C78.793 49.3665 78.0986 50.4061 77.2336 51.2914C76.3686 52.1808 75.333 52.8874 74.1553 53.395C72.9776 53.9027 71.7024 54.1626 70.3622 54.1626V54.1585ZM61.0339 53.7524H70.3622C71.6455 53.7524 72.8679 53.5047 73.9928 53.0214C75.1218 52.5341 76.1127 51.8559 76.9412 51.0071C77.7696 50.1543 78.4397 49.1553 78.927 48.0385C79.4144 46.9217 79.658 45.7196 79.658 44.4607C79.658 43.2017 79.4103 41.955 78.927 40.8301C78.4397 39.7011 77.7696 38.7021 76.929 37.8614C76.0884 37.0208 75.0893 36.3466 73.9603 35.8634C72.8314 35.376 71.6212 35.1324 70.3622 35.1324H61.0339V53.7605V53.7524Z" fill="#D7D7D7"/>
<path d="M159.271 31.315C159.271 30.316 159.625 29.4672 160.327 28.7606C161.03 28.058 161.883 27.7047 162.882 27.7047C163.881 27.7047 164.73 28.058 165.436 28.7606C166.139 29.4631 166.492 30.316 166.492 31.315V51.4701L189.133 28.8296C189.88 28.0824 190.757 27.7047 191.756 27.7047C192.256 27.7047 192.727 27.794 193.169 27.9768C193.612 28.1595 193.998 28.4154 194.327 28.7443C194.656 29.0733 194.912 29.4591 195.094 29.9017C195.277 30.3444 195.366 30.8155 195.366 31.315C195.366 32.314 195.013 33.1668 194.31 33.8694L176.47 51.7422L194.684 76.4254C195.139 77.063 195.366 77.7412 195.366 78.4682C195.366 78.9433 195.277 79.4103 195.094 79.8652C194.912 80.32 194.664 80.718 194.347 81.0551C194.03 81.3962 193.653 81.6683 193.222 81.8714C192.792 82.0744 192.325 82.1759 191.825 82.1759C190.485 82.1759 189.478 81.6642 188.796 80.6449L171.296 56.912L166.496 61.7122V78.5656C166.496 79.5647 166.143 80.4175 165.44 81.12C164.738 81.8226 163.885 82.1759 162.886 82.1759C161.887 82.1759 161.034 81.8226 160.331 81.12C159.629 80.4175 159.276 79.5647 159.276 78.5656V31.315H159.271Z" fill="#D7D7D7"/>
<path d="M191.821 82.383C190.416 82.383 189.34 81.8389 188.621 80.7586L171.268 57.2247L166.695 61.7974V78.5656C166.695 79.6175 166.321 80.5231 165.578 81.2622C164.839 82.0013 163.929 82.379 162.882 82.379C161.834 82.379 160.924 82.0054 160.185 81.2622C159.446 80.5231 159.068 79.6175 159.068 78.5656V31.315C159.068 30.2632 159.442 29.3575 160.185 28.6184C160.924 27.8793 161.834 27.5016 162.882 27.5016C163.929 27.5016 164.839 27.8753 165.578 28.6184C166.317 29.3575 166.695 30.2672 166.695 31.315V50.9828L188.99 28.6875C189.774 27.9037 190.704 27.5057 191.756 27.5057C192.28 27.5057 192.779 27.6032 193.246 27.794C193.713 27.9849 194.124 28.257 194.469 28.6022C194.814 28.9514 195.086 29.3616 195.281 29.8246C195.472 30.2916 195.569 30.7911 195.569 31.315C195.569 32.3668 195.196 33.2724 194.453 34.0115L176.734 51.7625L194.846 76.3077C195.326 76.9777 195.565 77.7047 195.565 78.4722C195.565 78.9717 195.468 79.4672 195.277 79.9423C195.086 80.4175 194.822 80.8398 194.489 81.1972C194.156 81.5546 193.754 81.847 193.303 82.0582C192.848 82.2734 192.349 82.383 191.821 82.383ZM171.313 56.6074L188.954 80.5271C189.608 81.5059 190.542 81.9769 191.821 81.9769C192.288 81.9769 192.727 81.8795 193.129 81.6886C193.535 81.4977 193.892 81.2378 194.193 80.917C194.493 80.5962 194.729 80.2185 194.903 79.788C195.074 79.3616 195.163 78.9149 195.163 78.4682C195.163 77.79 194.948 77.1402 194.522 76.5432L176.206 51.7219L194.168 33.7232C194.838 33.0531 195.163 32.2653 195.163 31.3109C195.163 30.8398 195.078 30.3931 194.907 29.9748C194.737 29.5606 194.493 29.191 194.185 28.8824C193.876 28.5738 193.51 28.3301 193.092 28.1595C192.674 27.989 192.227 27.9037 191.756 27.9037C190.806 27.9037 189.993 28.2529 189.279 28.9677L166.289 51.9574V31.3109C166.289 30.3728 165.952 29.5606 165.294 28.9027C164.624 28.2326 163.836 27.9077 162.886 27.9077C161.935 27.9077 161.135 28.2448 160.478 28.9027C159.807 29.5728 159.483 30.3606 159.483 31.3109V78.5697C159.483 79.52 159.807 80.3119 160.478 80.9779C161.14 81.6399 161.948 81.9729 162.886 81.9729C163.824 81.9729 164.624 81.648 165.294 80.9779C165.964 80.3078 166.289 79.5078 166.289 78.5697V61.6309L171.317 56.6033L171.313 56.6074Z" fill="#D7D7D7"/>
<path d="M149.565 44.4891C148.237 41.3134 146.235 38.3853 143.555 35.705C138.795 30.9454 133.175 28.3139 126.693 27.8022V35.0552C131.201 35.5466 135.128 37.4635 138.479 40.8139C142.381 44.7165 144.335 49.4274 144.335 54.9423C144.335 60.4573 142.381 65.2006 138.479 69.1074C135.144 72.4415 131.217 74.3462 126.693 74.8335V82.0825C133.191 81.5749 138.812 78.9555 143.555 74.2122C148.887 68.88 151.555 62.4553 151.555 54.9423C151.555 51.1534 150.893 47.669 149.565 44.4891Z" fill="#D7D7D7"/>
<path d="M126.49 82.3018V74.6508L126.673 74.6305C131.132 74.1512 135.059 72.2425 138.336 68.9612C142.182 65.1153 144.132 60.3964 144.132 54.9423C144.132 49.4883 142.182 44.8018 138.336 40.956C135.039 37.6584 131.116 35.7416 126.673 35.2583L126.49 35.238V27.5829L126.71 27.5991C133.211 28.1149 138.929 30.7911 143.697 35.5588C146.381 38.2432 148.416 41.22 149.752 44.4079C151.084 47.5958 151.758 51.1412 151.758 54.9383C151.758 62.4716 149.045 69.0059 143.697 74.3543C138.946 79.1058 133.232 81.7698 126.71 82.2815L126.49 82.2978V82.3018ZM126.896 75.0122V81.8592C133.228 81.315 138.783 78.6915 143.409 74.066C148.68 68.7947 151.352 62.3619 151.352 54.9383C151.352 51.194 150.686 47.7014 149.374 44.5622C148.063 41.423 146.057 38.4909 143.409 35.8431C138.763 31.1972 133.207 28.5656 126.896 28.0174V34.8684C131.359 35.3964 135.303 37.3457 138.625 40.6636C142.552 44.5907 144.542 49.3908 144.542 54.9383C144.542 60.4857 142.552 65.3184 138.625 69.2455C135.323 72.5471 131.376 74.4883 126.896 75.0081V75.0122Z" fill="#D7D7D7"/>
<path d="M122.259 74.8701C117.601 74.4396 113.564 72.5187 110.153 69.1074C106.25 65.2047 104.297 60.4817 104.297 54.9423C104.297 52.128 104.78 49.5614 105.742 47.2466C106.709 44.9318 108.175 42.7875 110.153 40.8098C112.126 38.8361 114.279 37.3579 116.606 36.3832C118.352 35.6522 120.236 35.1933 122.259 35.0106V27.7778C115.623 28.2245 109.885 30.8642 105.044 35.701C99.7319 41.0128 97.0759 47.4253 97.0759 54.9383C97.0759 62.4513 99.7319 68.8962 105.044 74.2081C109.864 79.0286 115.603 81.6521 122.259 82.0988V74.8619V74.8701Z" fill="#D7D7D7"/>
<path d="M122.462 82.3221L122.247 82.3059C115.566 81.8592 109.73 79.1829 104.902 74.3543C99.5776 69.0302 96.877 62.4959 96.877 54.9383C96.877 47.3806 99.5776 40.8829 104.902 35.5588C109.751 30.7099 115.582 28.0255 122.247 27.5747L122.462 27.5585V35.1933L122.275 35.2095C120.281 35.3882 118.401 35.8471 116.679 36.5659C114.388 37.5284 112.24 39.0026 110.291 40.9478C108.345 42.8931 106.875 45.0374 105.925 47.3156C104.975 49.5939 104.496 52.1564 104.496 54.9301C104.496 60.3882 106.445 65.1031 110.291 68.949C113.653 72.3116 117.682 74.2284 122.271 74.6548L122.454 74.671V82.3099L122.462 82.3221ZM122.056 28.0011C115.586 28.4885 109.913 31.1282 105.19 35.8512C99.9431 41.0981 97.2831 47.5227 97.2831 54.9423C97.2831 62.3619 99.9431 68.8231 105.19 74.07C109.893 78.7727 115.566 81.4043 122.056 81.8876V75.0528C117.446 74.5858 113.393 72.6324 110.006 69.2495C106.079 65.3265 104.089 60.5101 104.089 54.9423C104.089 52.1118 104.581 49.4964 105.551 47.1694C106.522 44.8424 108.021 42.6535 110.002 40.6676C111.988 38.6818 114.181 37.1792 116.52 36.1964C118.226 35.4816 120.086 35.0187 122.052 34.8237V27.993L122.056 28.0011Z" fill="#D7D7D7"/>
<path d="M124.318 70.4678C132.883 70.4678 139.827 63.5205 139.827 54.9505C139.827 46.3804 132.883 39.4331 124.318 39.4331C115.752 39.4331 108.809 46.3804 108.809 54.9505C108.809 63.5205 115.752 70.4678 124.318 70.4678Z" fill="#E8793E"/>
</g>
<defs>
<clipPath id="clip0_9_389">
<rect width="195.565" height="100" fill="white"/>
</clipPath>
</defs>
</svg>
