<svg width="27" height="32" viewBox="0 0 27 32" fill="none" xmlns="http://www.w3.org/2000/svg">
<path fill-rule="evenodd" clip-rule="evenodd" d="M3.98961 9.90608L10.7126 4.55231C15.0583 1.09165 17.2312 -0.638686 18.5968 0.215938C19.9625 1.07056 19.2534 3.7169 17.8353 9.00958L17.7016 9.50862C17.1901 11.4176 16.9343 12.3721 17.3838 13.1342L17.4078 13.1739C17.8739 13.9269 18.8673 14.1931 20.8541 14.7254C24.4295 15.6834 26.2172 16.1625 26.5308 17.4087L26.5455 17.4708C26.8208 18.7247 25.4104 19.8478 22.5898 22.094L15.8668 27.4477L15.8667 27.4477C11.521 30.9084 9.34813 32.6387 7.98246 31.784C6.61677 30.9294 7.3259 28.2831 8.74416 22.9904L8.74417 22.9903L8.87783 22.4915C9.38937 20.5825 9.64514 19.6281 9.19561 18.8659L9.17164 18.8263C8.70555 18.0732 7.71213 17.807 5.72528 17.2747C2.14991 16.3166 0.362221 15.8376 0.0485931 14.5914L0.0339663 14.5293C-0.241327 13.2754 1.169 12.1523 3.98961 9.90608Z" fill="#222222"/>
</svg>
