<svg width="32" height="32" viewBox="0 0 32 32" fill="none" xmlns="http://www.w3.org/2000/svg">
<path fill-rule="evenodd" clip-rule="evenodd" d="M17.7386 31.0204L18.606 29.5551C19.2788 28.4184 19.6152 27.8501 20.1555 27.5359C20.6958 27.2216 21.3761 27.2099 22.7366 27.1864C24.7452 27.1518 26.005 27.0288 27.0615 26.5911C29.0217 25.7792 30.5791 24.2218 31.391 22.2616C32 20.7914 32 18.9276 32 15.2001V13.6001C32 8.36255 32 5.74379 30.8211 3.82003C30.1615 2.74358 29.2564 1.83853 28.18 1.17888C26.2562 0 23.6375 0 18.4 0H13.6C8.36251 0 5.74377 0 3.82001 1.17888C2.74357 1.83853 1.83852 2.74358 1.17888 3.82003C0 5.74379 0 8.36255 0 13.6001V15.2001C0 18.9276 0 20.7914 0.608964 22.2616C1.42092 24.2218 2.97831 25.7792 4.93853 26.5911C5.99502 27.0288 7.25475 27.1518 9.26333 27.1864C10.6239 27.2099 11.3041 27.2216 11.8445 27.5359C12.3848 27.8501 12.7212 28.4184 13.3939 29.5551L14.2613 31.0204C15.0344 32.3265 16.9656 32.3265 17.7386 31.0204ZM22.4 16.0001C23.2837 16.0001 24 15.2837 24 14.4001C24 13.5164 23.2837 12.8001 22.4 12.8001C21.5163 12.8001 20.8 13.5164 20.8 14.4001C20.8 15.2837 21.5163 16.0001 22.4 16.0001ZM17.6 14.4001C17.6 15.2837 16.8837 16.0001 16 16.0001C15.1163 16.0001 14.4 15.2837 14.4 14.4001C14.4 13.5164 15.1163 12.8001 16 12.8001C16.8837 12.8001 17.6 13.5164 17.6 14.4001ZM9.6 16.0001C10.4837 16.0001 11.2 15.2837 11.2 14.4001C11.2 13.5164 10.4837 12.8001 9.6 12.8001C8.71634 12.8001 8 13.5164 8 14.4001C8 15.2837 8.71634 16.0001 9.6 16.0001Z" fill="#3935FE"/>
</svg>
