<svg width="32" height="32" viewBox="0 0 32 32" fill="none" xmlns="http://www.w3.org/2000/svg">
<path d="M16.9373 31.0627C17.8745 32 19.383 32 22.4 32H25.6C28.617 32 30.1255 32 31.0627 31.0627C32 30.1255 32 28.617 32 25.6V6.4C32 3.38303 32 1.87451 31.0627 0.937259C30.1255 0 28.617 0 25.6 0H22.4C19.383 0 17.8745 0 16.9373 0.93726C16.1335 1.74103 16.019 2.9649 16.0027 5.2L19.2 5.2C19.8627 5.2 20.4 5.73726 20.4 6.4C20.4 7.06274 19.8627 7.6 19.2 7.6H16V10H20.8C21.4627 10 22 10.5373 22 11.2C22 11.8627 21.4627 12.4 20.8 12.4H16V14.8H19.2C19.8627 14.8 20.4 15.3373 20.4 16C20.4 16.6627 19.8627 17.2 19.2 17.2H16V19.6L20.8 19.6C21.4627 19.6 22 20.1373 22 20.8C22 21.4627 21.4627 22 20.8 22L16 22V24.4H19.2C19.8627 24.4 20.4 24.9373 20.4 25.6C20.4 26.2627 19.8627 26.8 19.2 26.8H16.0027C16.019 29.0351 16.1335 30.259 16.9373 31.0627Z" fill="#3935FE"/>
<path d="M9.6 21.1096L9.6 8.34266C8.36961 8.84985 6.74665 9.28489 4.80029 9.28489C2.85363 9.28489 1.23046 8.84972 3.85841e-07 8.34242L9.00296e-07 21.1096C3.47257e-06 22.1058 3.21713e-06 22.604 0.0604277 23.0929C0.131708 23.6695 0.265599 24.2367 0.459731 24.7843C0.624303 25.2486 0.847082 25.6942 1.29265 26.5853L3.64223 31.2845C3.8615 31.723 4.30971 32 4.8 32C5.29029 32 5.7385 31.723 5.95777 31.2845L8.30735 26.5853C8.75291 25.6942 8.9757 25.2486 9.14027 24.7843C9.3344 24.2367 9.46829 23.6695 9.53957 23.0929C9.6 22.604 9.6 22.1058 9.6 21.1096Z" fill="#3935FE"/>
<path d="M9.6 4.8C9.6 2.14903 7.45097 1.22183e-06 4.8 0C2.14903 -9.64602e-08 9.64604e-08 2.14903 1.92921e-07 4.8L0 6.33123C0.0421413 6.3524 0.0851127 6.37362 0.128907 6.39486C1.21839 6.92309 2.80821 7.45395 4.80029 7.45395C6.79238 7.45395 8.38219 6.92309 9.47167 6.39486C9.51527 6.37372 9.55805 6.3526 9.6 6.33152V4.8Z" fill="#3935FE"/>
</svg>
