<svg width="24" height="34" viewBox="0 0 24 34" fill="none" xmlns="http://www.w3.org/2000/svg">
<path d="M17.0001 22.3333C19.9456 22.3333 22.3334 19.9454 22.3334 16.9999C22.3334 14.0544 19.9456 11.6666 17.0001 11.6666C14.0546 11.6666 11.6667 14.0544 11.6667 16.9999C11.6667 19.9454 14.0546 22.3333 17.0001 22.3333Z" stroke="#222222" stroke-width="2" stroke-linecap="round" stroke-linejoin="round"/>
<path d="M11.6667 11.6666V1H6.33335C4.91886 1 3.5623 1.5619 2.5621 2.5621C1.5619 3.5623 1 4.91886 1 6.33335C1 7.74784 1.5619 9.1044 2.5621 10.1046C3.5623 11.1048 4.91886 11.6667 6.33335 11.6667L11.6667 11.6666Z" stroke="#222222" stroke-width="2" stroke-linecap="round" stroke-linejoin="round"/>
<path d="M11.6667 11.6666V22.3331L6.33335 22.3333C4.91886 22.3333 3.5623 21.7714 2.5621 20.7712C1.5619 19.771 1 18.4144 1 16.9999C1 15.5854 1.5619 14.2289 2.5621 13.2287C3.5623 12.2285 4.91886 11.6666 6.33335 11.6666H11.6667ZM11.6667 11.6666V1H17.0001C18.4145 1 19.7711 1.5619 20.7713 2.5621C21.7715 3.5623 22.3334 4.91886 22.3334 6.33335C22.3334 7.74784 21.7715 9.1044 20.7713 10.1046C19.7711 11.1048 18.4145 11.6667 17.0001 11.6667L11.6667 11.6666Z" stroke="#222222" stroke-width="2" stroke-linecap="round" stroke-linejoin="round"/>
<path d="M11.6667 22.3332V27.6666C11.6667 28.7215 11.3539 29.7526 10.7679 30.6297C10.1819 31.5068 9.34893 32.1904 8.37439 32.594C7.39985 32.9977 6.32748 33.1033 5.29291 32.8976C4.25834 32.6918 3.30802 32.1838 2.56213 31.438C1.81624 30.6921 1.30828 29.7418 1.10249 28.7072C0.896692 27.6726 1.00231 26.6003 1.40597 25.6257C1.80964 24.6512 2.49323 23.8182 3.37029 23.2322C4.24736 22.6461 5.27851 22.3333 6.33335 22.3333L11.6667 22.3332Z" stroke="#222222" stroke-width="2" stroke-linecap="round" stroke-linejoin="round"/>
</svg>
