<svg width="32" height="32" viewBox="0 0 32 32" fill="none" xmlns="http://www.w3.org/2000/svg">
<path d="M10.7032 25.7664C10.7032 25.8987 10.5549 26.0046 10.3677 26.0046C10.1549 26.0244 10.0065 25.9185 10.0065 25.7664C10.0065 25.634 10.1549 25.5282 10.3419 25.5282C10.5355 25.5083 10.7032 25.6142 10.7032 25.7664ZM8.69676 25.4686C8.65162 25.6009 8.78063 25.7531 8.97423 25.7928C9.1419 25.8589 9.33549 25.7928 9.37423 25.6605C9.41288 25.5282 9.29036 25.376 9.09676 25.3164C8.92901 25.2701 8.74189 25.3362 8.69676 25.4686ZM11.5484 25.3561C11.3613 25.4024 11.2323 25.5282 11.2516 25.6803C11.271 25.8126 11.4387 25.8987 11.6323 25.8524C11.8194 25.806 11.9484 25.6803 11.929 25.5479C11.9096 25.4223 11.7355 25.3362 11.5484 25.3561ZM15.7935 0C6.84516 0 0 6.96763 0 16.1453C0 23.4835 4.50323 29.763 10.9355 31.973C11.7613 32.1252 12.0516 31.6024 12.0516 31.1723C12.0516 30.7621 12.0323 28.4991 12.0323 27.1096C12.0323 27.1096 7.51613 28.1021 6.56774 25.1377C6.56774 25.1377 5.83226 23.2122 4.77419 22.7159C4.77419 22.7159 3.29677 21.6771 4.87742 21.6969C4.87742 21.6969 6.48387 21.8293 7.36774 23.4041C8.78063 25.9582 11.1484 25.2237 12.071 24.787C12.2194 23.7283 12.6387 22.9938 13.1032 22.5571C9.49676 22.1468 5.85806 21.6109 5.85806 15.2454C5.85806 13.4258 6.34839 12.5126 7.38065 11.348C7.2129 10.9179 6.66451 9.14459 7.54839 6.85514C8.89676 6.42504 12 8.64167 12 8.64167C13.2904 8.27116 14.6774 8.07928 16.0516 8.07928C17.4258 8.07928 18.8129 8.27116 20.1032 8.64167C20.1032 8.64167 23.2065 6.41842 24.5549 6.85514C25.4387 9.15125 24.8904 10.9179 24.7226 11.348C25.7549 12.5193 26.3871 13.4324 26.3871 15.2454C26.3871 21.6308 22.5871 22.1403 18.9806 22.5571C19.5742 23.0799 20.0774 24.0724 20.0774 25.6274C20.0774 27.8572 20.0581 30.6165 20.0581 31.1591C20.0581 31.5892 20.3549 32.1119 21.1742 31.9597C27.6258 29.763 32 23.4835 32 16.1453C32 6.96763 24.7419 0 15.7935 0ZM6.27096 22.8218C6.1871 22.888 6.20645 23.0401 6.31613 23.1659C6.41935 23.2718 6.56774 23.3181 6.65161 23.2321C6.73549 23.1659 6.71613 23.0137 6.60645 22.888C6.50323 22.7821 6.35484 22.7358 6.27096 22.8218ZM5.5742 22.2858C5.52904 22.3718 5.59355 22.4777 5.72258 22.5439C5.82581 22.61 5.95484 22.5902 6 22.4976C6.04516 22.4116 5.98065 22.3057 5.85161 22.2395C5.72258 22.1998 5.61935 22.2196 5.5742 22.2858ZM7.66451 24.6414C7.56129 24.7274 7.6 24.926 7.74839 25.0517C7.89677 25.2039 8.08387 25.2237 8.16774 25.1179C8.25161 25.0319 8.2129 24.8333 8.08387 24.7077C7.94194 24.5554 7.74839 24.5356 7.66451 24.6414ZM6.92904 23.6687C6.82581 23.735 6.82581 23.9069 6.92904 24.0592C7.03226 24.2114 7.20645 24.2775 7.29032 24.2114C7.39355 24.1254 7.39355 23.9533 7.29032 23.8011C7.2 23.6489 7.03226 23.5827 6.92904 23.6687Z" fill="#3935FE"/>
</svg>
