<svg width="32" height="32" viewBox="0 0 32 32" fill="none" xmlns="http://www.w3.org/2000/svg">
<mask id="mask0_270_218" style="mask-type:alpha" maskUnits="userSpaceOnUse" x="0" y="0" width="32" height="32">
<path fill-rule="evenodd" clip-rule="evenodd" d="M11.9278 17.2698H15.8311C15.1591 14.9841 14.4974 12.8711 13.8463 10.7235C13.2145 12.8787 12.5736 14.9841 11.9278 17.2698ZM31.2666 0H0.480026C-0.0750726 0 0.00440862 0.120888 0.00440862 0.656505V31.4866C0.00440862 32.0217 -0.0750725 31.9999 0.44092 31.9999H31.3057C31.8215 31.9999 32 32.0217 32 31.4864V0.695616C32 0.120888 31.8217 0 31.2666 0ZM19.379 24.1269C18.9633 24.1269 18.5461 24.0931 18.1325 24.1228C17.8341 24.1452 17.7343 24.0197 17.6548 23.7607C17.2703 22.5084 16.8618 21.2566 16.4771 20.0045C16.3996 19.7526 16.2889 19.6606 16.0159 19.6639C14.6134 19.6802 13.2102 19.6787 11.8075 19.6621C11.5122 19.6586 11.3763 19.7373 11.292 20.0304C10.935 21.2759 10.5444 22.5112 10.1836 23.7553C10.1054 24.025 9.98652 24.1193 9.70009 24.1119C8.85754 24.0908 8.01372 24.1038 7.09118 24.1038C7.3347 23.3304 7.55562 22.6153 7.78416 21.9032C9.18435 17.5349 10.5894 13.1667 11.9794 8.79565C12.0764 8.4914 12.2112 8.39768 12.5236 8.40454C13.5104 8.42638 14.4979 8.41013 15.4852 8.40454C15.6698 8.40327 15.7958 8.41419 15.8633 8.62397C17.5151 13.7328 19.1728 18.8731 20.829 23.9814C20.8361 24.0045 20.8315 24.1269 20.8353 24.1269H19.379ZM24.6359 24.1269H21.5887V12.6984H24.6359V24.1269ZM23.0235 11.1565C22.0928 11.1553 21.4265 10.5145 21.4201 9.61495C21.414 8.71793 22.1075 8.05076 23.0468 8.04975C23.9935 8.04873 24.6606 8.69406 24.6679 9.61698C24.6745 10.5173 23.9907 11.1581 23.0235 11.1565Z" fill="white"/>
</mask>
<g mask="url(#mask0_270_218)">
<rect width="32" height="32" rx="6" fill="#3935FE"/>
</g>
</svg>
