<svg width="32" height="32" viewBox="0 0 32 32" fill="none" xmlns="http://www.w3.org/2000/svg">
<mask id="mask0_270_221" style="mask-type:alpha" maskUnits="userSpaceOnUse" x="0" y="0" width="32" height="32">
<path fill-rule="evenodd" clip-rule="evenodd" d="M0.009375 0H31.9906C31.9958 0 32 0.00419733 32 0.009375V31.9906C32 31.9958 31.9958 32 31.9906 32H0.009375C0.00419733 32 0 31.9958 0 31.9906V0.009375C0 0.00419733 0.00419733 0 0.009375 0ZM23.1876 24.9375C21.7501 24.9375 20.8751 24.1875 20.2501 23.125L17.7501 24.5625C18.6251 26.3125 20.4376 27.625 23.2501 27.625C26.1251 27.625 28.2501 26.125 28.2501 23.4375C28.2501 20.875 26.8126 19.8125 24.2501 18.6875L23.5001 18.375C22.1876 17.8125 21.6251 17.4375 21.6251 16.5625C21.6251 15.8125 22.1876 15.25 23.0626 15.25C23.9376 15.25 24.5001 15.625 25.0001 16.5625L27.3126 15.0625C26.3751 13.3125 25.0001 12.625 23.0626 12.625C20.3751 12.625 18.6876 14.375 18.6876 16.625C18.6876 19.0625 20.1251 20.1875 22.3126 21.125L23.0626 21.4375C24.4376 22.0625 25.2501 22.4375 25.2501 23.4375C25.2501 24.3125 24.4376 24.9375 23.1876 24.9375ZM9.72954 23.5462C9.69515 23.4896 9.66041 23.4324 9.62505 23.375L7.18755 24.6875C7.87505 26.1875 9.25005 27.4375 11.6876 27.4375C14.3751 27.4375 16.1876 26.0625 16.1876 22.9375V12.6875H13.1876V23.0625C13.1876 24.5625 12.5626 24.9375 11.5626 24.9375C10.5752 24.9375 10.1815 24.2898 9.72954 23.5462Z" fill="white"/>
</mask>
<g mask="url(#mask0_270_221)">
<rect width="32" height="32" rx="6" fill="#3935FE"/>
</g>
</svg>
