<svg width="32" height="32" viewBox="0 0 32 32" fill="none" xmlns="http://www.w3.org/2000/svg">
<path fill-rule="evenodd" clip-rule="evenodd" d="M5.6 0H26.4C29.4928 0 32 2.59366 32 5.7931V26.2069C32 29.4063 29.4928 32 26.4 32H5.6C2.50721 32 0 29.4063 0 26.2069V5.7931C0 2.59366 2.50721 0 5.6 0ZM6.66675 8.55198V23.5699C6.66675 23.6734 6.72408 23.7244 6.83742 23.7244H9.16275C9.18594 23.7279 9.20959 23.7257 9.23183 23.718C9.25406 23.7104 9.27427 23.6975 9.29084 23.6803C9.30741 23.6632 9.31988 23.6423 9.32727 23.6193C9.33467 23.5963 9.33677 23.5718 9.33342 23.5478V17.9313L10.5334 17.9092C12.2579 17.9083 13.689 17.5037 14.8268 16.6954C15.9645 15.8871 16.5334 14.6513 16.5334 12.9878C16.5461 12.3566 16.4301 11.7297 16.193 11.148C15.9559 10.5662 15.6031 10.0426 15.1574 9.61129C14.2401 8.69956 12.8001 8.27611 10.8374 8.27611C9.72964 8.27611 8.79382 8.31707 7.97292 8.353C7.56074 8.37104 7.17754 8.38781 6.81608 8.39749C6.79585 8.39479 6.77529 8.39692 6.75598 8.40373C6.73667 8.41053 6.71913 8.42183 6.7047 8.43675C6.69028 8.45168 6.67935 8.46982 6.67277 8.4898C6.66619 8.50978 6.66413 8.53105 6.66675 8.55198ZM9.33342 15.8623V10.4306C9.31856 10.3666 9.38648 10.3667 9.51584 10.3671C9.52578 10.3671 9.53609 10.3671 9.54675 10.3671C9.69608 10.3671 9.88808 10.3671 10.1228 10.3561C10.3574 10.3451 10.5961 10.3451 10.8374 10.3451C11.8188 10.3414 12.569 10.575 13.0881 11.0458C13.6072 11.5166 13.8668 12.186 13.8668 13.054C13.8659 14.0416 13.5708 14.7524 12.9814 15.1865C12.3921 15.6205 11.6205 15.8375 10.6668 15.8375C9.94142 15.8375 9.33342 15.8623 9.33342 15.8623ZM24.2668 22.6209C24.2668 22.6209 25.3334 21.8278 25.3334 20.1382C25.3334 19.3534 24.8721 18.7023 24.3748 18.2292L24.3628 18.2168C23.8792 17.7193 23.0792 17.2449 21.9628 16.7934C21.3228 16.5258 20.9032 16.2913 20.7041 16.0899C20.6096 16.0004 20.5342 15.8915 20.4828 15.7701C20.4314 15.6487 20.405 15.5176 20.4054 15.3851C20.4078 15.2496 20.4409 15.1167 20.502 14.9969C20.5631 14.8771 20.6506 14.7738 20.7574 14.6954C20.9921 14.5023 21.3574 14.4044 21.8561 14.4044C22.7436 14.4108 23.6103 14.6824 24.3521 15.1865C24.4801 15.272 24.5441 15.2278 24.5441 15.0485V13.1934C24.5441 13.0416 24.5081 12.9478 24.4374 12.9037C23.8152 12.5754 22.9263 12.4113 21.7708 12.4113C20.5325 12.4113 19.5796 12.7244 18.9121 13.3506C18.5841 13.6461 18.3211 14.0109 18.1408 14.4203C17.9605 14.8298 17.867 15.2744 17.8668 15.7244C17.8558 16.4477 18.1135 17.1477 18.5868 17.6803C19.0339 18.2117 19.8268 18.7074 20.9654 19.1672C21.5912 19.42 22.0108 19.655 22.2241 19.872C22.3278 19.9739 22.4098 20.0971 22.4649 20.2337C22.52 20.3702 22.5469 20.5171 22.5441 20.6651C22.5438 20.8117 22.5068 20.9557 22.4367 21.0831C22.3666 21.2105 22.2658 21.3169 22.1441 21.392C21.8801 21.5759 21.4996 21.6678 21.0028 21.6678C19.9267 21.66 18.8836 21.2825 18.0374 20.5947C18.0256 20.5809 18.0092 20.5721 17.9915 20.5701C17.9737 20.5681 17.9559 20.5729 17.9414 20.5837C17.9231 20.5977 17.9086 20.6164 17.8993 20.6379C17.89 20.6594 17.8861 20.683 17.8881 20.7065V22.7851C17.8818 22.8327 17.8917 22.8811 17.916 22.9221C17.9403 22.9631 17.9775 22.9941 18.0214 23.0099C18.8152 23.4862 19.8374 23.7244 21.0881 23.7244C22.3388 23.7244 23.3312 23.4154 24.0654 22.7975C24.1334 22.7382 24.2028 22.6775 24.2668 22.6127V22.6209Z" fill="#222222"/>
</svg>
