<svg width="43" height="32" viewBox="0 0 43 32" fill="none" xmlns="http://www.w3.org/2000/svg">
<path d="M36.7135 18.3954C36.7655 18.3941 36.8269 18.3928 36.8895 18.3928C38.0016 18.3928 39.0536 18.6514 39.987 19.1128L39.9457 19.0941C40.7964 19.5088 41.4951 20.1222 42.0004 20.8742L42.0124 20.8929C42.4111 21.4742 42.6484 22.1929 42.6484 22.9663C42.6484 23.0223 42.6471 23.0783 42.6444 23.133V23.125C42.6031 23.897 42.2524 24.5784 41.7137 25.0557L41.7111 25.0584C41.4164 25.3477 41.0604 25.5744 40.6644 25.7184L40.6444 25.7251C40.4221 25.7695 40.2999 25.7362 40.2777 25.6251C40.2555 25.514 40.3555 25.3917 40.5777 25.2584C41.1804 24.893 41.6164 24.3037 41.7751 23.609L41.7791 23.5916C41.7831 23.5356 41.7857 23.4703 41.7857 23.4036C41.7857 22.989 41.6871 22.5969 41.5124 22.2503L41.5191 22.2649C41.2297 21.6609 40.7977 21.1649 40.2657 20.8062L40.2523 20.7982C39.4563 20.2862 38.5016 19.9502 37.4749 19.8662L37.4536 19.8648C37.1042 19.8128 36.7015 19.7835 36.2908 19.7835C35.2228 19.7835 34.2028 19.9848 33.2641 20.3515L33.3201 20.3315C33.5134 20.7835 33.6347 21.3076 33.6521 21.8569V21.8636C33.6307 22.9903 33.0254 23.9703 32.1253 24.517L32.1107 24.525C31.6973 24.8184 31.2253 25.0757 30.7226 25.2757L30.6759 25.2917C30.3706 25.4411 30.0119 25.5277 29.6332 25.5277C29.5892 25.5277 29.5466 25.5264 29.5039 25.5237H29.5106C28.667 25.3468 28.467 24.6135 28.9105 23.3236C29.1039 22.7623 29.3746 22.2756 29.7172 21.8476L29.7092 21.8569C30.1479 21.2836 30.6293 20.7809 31.1613 20.3355L31.176 20.3235L31.0453 20.1288C30.8013 19.7128 30.5773 19.2288 30.3973 18.7234L30.3786 18.6621C30.2453 18.2176 30.1341 17.7959 30.0453 17.3967L29.9786 16.93L29.3119 18.1954C28.7341 19.2621 28.1785 20.1951 27.6452 20.9942L27.4451 21.3276C27.6692 21.8716 27.8345 22.5023 27.9092 23.161L27.9118 23.1943C27.9172 23.257 27.9198 23.3316 27.9198 23.4063C27.9198 24.417 27.4211 25.3104 26.6558 25.8557L26.6464 25.8624C26.2811 26.0878 25.8451 26.3211 25.3931 26.5291L25.3131 26.5624C24.8424 26.7664 24.297 26.8998 23.725 26.9291H23.713C23.669 26.9318 23.617 26.9345 23.565 26.9345C23.2316 26.9345 22.9156 26.8585 22.6329 26.7238L22.6463 26.7291C22.4769 26.5838 22.3703 26.3704 22.3703 26.1318C22.3703 26.0104 22.3983 25.8944 22.4476 25.7917L22.4449 25.7971C22.9783 25.049 23.5036 24.3983 24.0623 23.777L24.045 23.797L25.5117 21.9316L25.2464 21.3316C25.033 20.9395 24.829 20.4769 24.665 19.9968L24.6464 19.9328C24.513 19.4884 24.4019 19.0666 24.313 18.6674L24.2463 18.2008L23.5796 19.8008C23.0472 21.0444 22.5583 22.1107 22.1129 22.9996C21.4489 24.333 20.8933 25.3553 20.4462 26.0664L20.3128 26.2664C19.7804 27.11 19.2692 27.5318 18.7795 27.5318C18.2897 27.5318 17.9576 27.2207 17.7834 26.5984C17.6554 26.1398 17.5807 25.6131 17.5807 25.069C17.5807 25.021 17.5807 24.973 17.5821 24.925V24.9317L17.7154 23.9983V24.065C17.3598 24.9086 17.0043 25.686 16.6487 26.3971C16.4127 26.8585 16.17 27.2518 15.898 27.6225L15.9153 27.5971C15.6407 27.8852 15.254 28.0638 14.826 28.0638C14.822 28.0638 14.8193 28.0638 14.8153 28.0638C14.7873 28.0665 14.7553 28.0665 14.7233 28.0665C14.3859 28.0665 14.0793 27.9385 13.8472 27.7292L13.8486 27.7305C13.3832 27.2531 13.0379 26.6571 12.8592 25.9917L12.8525 25.9637C12.6339 25.3571 12.5085 24.6557 12.5085 23.925C12.5085 23.8303 12.5112 23.737 12.5152 23.645V23.6583C12.6205 22.5969 12.8325 21.6249 13.1432 20.6982L13.1152 20.7929L10.7164 22.1929V22.2596C11.0645 22.9823 11.2685 23.8303 11.2685 24.7264C11.2685 24.8904 11.2618 25.053 11.2485 25.213L11.2498 25.1917C11.1791 26.5651 10.7404 27.8225 10.0324 28.8852L10.0498 28.8585C9.30705 30.0372 8.23634 30.948 6.96429 31.4746L6.92029 31.4906C6.20426 31.812 5.36689 32 4.48685 32C3.9295 32 3.38814 31.9253 2.87612 31.784L2.91879 31.7933C2.49477 31.6506 2.14809 31.368 1.92808 31.0026L1.92408 30.9946C1.6134 30.5439 1.41739 29.9932 1.38672 29.3999V29.3919C1.37206 29.2572 1.36406 29.1012 1.36406 28.9425C1.36406 28.2585 1.52006 27.6105 1.79874 27.0331L1.78674 27.0598C2.55211 25.7544 3.61082 24.697 4.87487 23.953L4.91487 23.9317C5.80958 23.3116 6.83762 22.7103 7.911 22.1863L8.05234 22.1236L8.38568 21.9236C7.98567 21.6125 7.2523 21.0791 6.18559 20.3235C4.7602 19.3688 3.52148 18.4048 2.35343 17.3621L2.38677 17.3914C1.25739 16.4194 0.434685 15.1206 0.0653361 13.6419L0.0546689 13.5912C0.0200008 13.3859 0 13.1499 0 12.9099C0 12.1578 0.193341 11.4511 0.532022 10.8365L0.521355 10.8591C1.26805 9.25372 2.30276 7.90033 3.57215 6.81228L3.58815 6.79895C4.96154 5.50156 6.51627 4.37218 8.20434 3.45748L8.32035 3.40014C9.82841 2.52944 11.5898 1.72007 13.4259 1.07071L13.6526 1.00137C15.358 0.377349 17.3274 0.0120005 19.3808 0.00533356H19.3835C19.4768 0.00266678 19.5875 0 19.6982 0C21.3529 0 22.9183 0.382683 24.3103 1.06404L24.249 1.03604C25.4491 1.58273 26.3478 2.61211 26.7078 3.87083L26.7158 3.90283C26.8265 4.33218 26.8891 4.82553 26.8891 5.33356C26.8891 6.17626 26.7144 6.97896 26.4011 7.70699L26.4158 7.66832C25.8451 9.05104 25.033 10.2284 24.0197 11.1978L24.0157 11.2018C22.989 12.2192 21.7582 13.0325 20.3915 13.5752L20.3182 13.6006C18.8861 14.2153 17.2234 14.6019 15.478 14.6659L15.4526 14.6673C15.1966 14.6966 14.9006 14.7126 14.6006 14.7126C13.8112 14.7126 13.0499 14.5993 12.3298 14.3873L12.3872 14.4019C11.7432 14.1966 11.1871 13.8779 10.7151 13.4646L10.7204 13.4686C10.3898 13.1992 10.1204 12.8672 9.92841 12.4899L9.92041 12.4725C9.78707 12.1169 9.77596 11.9058 9.88708 11.8392C9.99819 11.7725 10.076 11.7614 10.1204 11.8058L10.4538 12.1392C10.8258 12.4845 11.2698 12.7565 11.7605 12.9299L11.7872 12.9379C12.4619 13.1725 13.2406 13.3086 14.0499 13.3086C14.3099 13.3086 14.5659 13.2952 14.818 13.2672L14.7873 13.2699C16.9447 13.0152 18.8901 12.2792 20.5689 11.1725L20.5195 11.2031C21.9382 10.3591 23.0863 9.19905 23.8943 7.81633L23.9183 7.77099C24.3197 7.18163 24.5597 6.4536 24.5597 5.66957C24.5597 5.18822 24.469 4.72686 24.3037 4.30285L24.313 4.32818C23.8143 3.54015 23.0076 2.98546 22.0663 2.83212L22.0476 2.82945C21.3169 2.64944 20.4769 2.54544 19.6142 2.54544C18.9195 2.54544 18.2394 2.61211 17.5821 2.74011L17.6487 2.72945C15.3993 3.1348 13.3886 3.82949 11.5338 4.7842L11.6552 4.72686C6.19004 7.48253 3.36814 10.3044 3.18947 13.1925V13.2579C3.18947 14.4219 3.64682 15.4793 4.39218 16.2607L4.39085 16.2593C5.24022 17.2034 6.17892 18.0368 7.2043 18.7568L7.2563 18.7914C8.19101 19.4901 9.01771 20.2115 9.78707 20.9902L9.78841 20.9929L9.92175 21.1262L14.1886 18.7941C14.6753 18.0901 15.2606 17.4954 15.9327 17.0154L15.954 17.0007C16.4874 16.5527 17.1647 16.2607 17.9074 16.202L17.9194 16.2007C17.9461 16.198 17.9768 16.198 18.0088 16.198C18.5061 16.198 18.9328 16.498 19.1168 16.9274L19.1195 16.9354C19.2595 17.2487 19.3408 17.6154 19.3408 18.0007C19.3408 18.1181 19.3328 18.2341 19.3181 18.3488L19.3195 18.3354L19.1901 18.9928L19.3901 18.8595C19.5288 18.7541 19.7035 18.6914 19.8928 18.6914C20.0128 18.6914 20.1262 18.7168 20.2288 18.7621L20.2235 18.7594C20.4795 18.8261 20.6649 19.0555 20.6649 19.3275C20.6649 19.3741 20.6595 19.4195 20.6489 19.4635L20.6502 19.4595L20.4502 20.1928C20.0502 21.792 19.7839 22.9472 19.6515 23.6583C19.5848 23.889 19.5475 24.1543 19.5475 24.429C19.5475 24.4864 19.5488 24.5424 19.5528 24.5984V24.5904C19.575 24.857 19.6084 24.9904 19.6528 24.9904C19.6973 24.9904 19.7857 24.857 19.9182 24.5904L20.1182 24.1237C20.1626 24.1237 20.1626 24.1459 20.1182 24.1903L20.8515 22.6569C22.5849 18.8363 23.5179 16.7029 23.6503 16.2567L24.0503 14.9913C24.0948 14.9024 24.2726 14.8139 24.5837 14.7259C24.8997 14.6406 25.2611 14.5913 25.6344 14.5913C25.6651 14.5913 25.6957 14.5913 25.7251 14.5926H25.7211C26.3433 14.5926 26.6544 14.7482 26.6544 15.0593L26.5878 15.3926C26.4384 15.8033 26.2904 16.3167 26.1758 16.842L26.1611 16.926C26.1344 17.098 26.1184 17.2954 26.1184 17.4981C26.1184 17.7674 26.1451 18.0301 26.1971 18.2848L26.1931 18.2594L26.2598 18.5248C26.3958 19.0808 26.6024 19.5688 26.8731 20.0142L26.8598 19.9915C27.3923 19.1035 27.9034 18.1928 28.3932 17.2594C28.7799 16.6154 29.1399 15.8687 29.4292 15.0873L29.4599 14.994C29.5599 14.4913 29.6746 14.0673 29.8146 13.6539L29.7932 13.7286C29.8377 13.5952 30.0275 13.4952 30.3626 13.4286C30.6799 13.3646 31.044 13.3286 31.416 13.3286H31.464H31.4613C32.0836 13.3286 32.4156 13.4841 32.4574 13.7952L32.324 14.0606C32.1653 14.5086 32.0267 15.0473 31.9333 15.6006L31.9253 15.6607C31.9133 15.79 31.9053 15.9393 31.9053 16.0913C31.9053 16.41 31.9373 16.722 31.9973 17.0234L31.992 16.9927V17.2581C32.1453 17.8394 32.3734 18.3501 32.672 18.8128L32.6587 18.7914L32.8587 19.2581C33.9721 18.7114 35.2815 18.3914 36.6655 18.3914H36.7175H36.7149L36.7135 18.3954ZM8.12701 28.0665C9.05371 27.1091 9.62573 25.8024 9.62573 24.3623C9.62573 23.8063 9.5404 23.2703 9.38306 22.7663L9.39373 22.8036L8.32701 23.4703C7.23897 24.0903 6.2976 24.7824 5.44556 25.5691L5.45623 25.5597C4.80953 26.1544 4.33218 26.9238 4.0975 27.7918L4.0895 27.8252C3.8895 28.6474 3.9895 29.1808 4.38952 29.4252C4.63353 29.5372 4.92021 29.6026 5.22022 29.6026C5.54823 29.6026 5.85891 29.5252 6.13226 29.3866L6.12026 29.3919C6.91229 29.1039 7.58298 28.6465 8.11634 28.0612L8.12034 28.0572L8.12701 28.0665ZM17.0567 21.9276C17.2789 21.3498 17.5234 20.6609 17.7901 19.8608C18.1456 18.7941 18.2679 18.1723 18.1568 17.9954C18.0456 17.8185 17.8345 17.7963 17.5234 17.9287C17.1527 18.1088 16.842 18.3554 16.594 18.6581L16.59 18.6634C16.3127 19.0141 16.0487 19.4061 15.814 19.8182L15.79 19.8635C15.5206 20.3048 15.2926 20.8129 15.134 21.3516L15.122 21.3969C14.8646 22.0943 14.7153 22.901 14.7153 23.741C14.7153 23.8543 14.7179 23.9663 14.7233 24.0783V24.0623C14.7677 24.9504 14.91 25.4282 15.15 25.4957C15.39 25.5633 15.6678 25.241 15.9833 24.529C16.2887 23.9783 16.5607 23.3383 16.7634 22.6676L16.782 22.5956C16.9145 22.2809 17.0052 22.0583 17.054 21.9276H17.0567ZM24.4517 25.4611C25.3757 25.0464 26.0264 24.173 26.1171 23.1396L26.1184 23.129V23.0623L25.3851 23.9957L24.053 25.4624C24.033 25.4784 24.0197 25.5024 24.0197 25.5291C24.0197 25.5557 24.033 25.5797 24.0517 25.5957C24.0943 25.6393 24.2277 25.5948 24.4517 25.4624V25.4611ZM30.1839 24.1943C31.192 23.9063 31.9173 22.993 31.9173 21.9116C31.9173 21.8942 31.9173 21.8769 31.9173 21.8596V21.8622C31.904 21.5956 31.856 21.3449 31.7773 21.1075L31.7827 21.1275C31.264 21.5889 30.8386 22.1409 30.5306 22.7636L30.5159 22.7943C30.115 23.5934 30.003 24.0592 30.1799 24.1917L30.1839 24.1943Z" fill="#3935FE"/>
</svg>
