<svg width="32" height="26" viewBox="0 0 32 26" fill="none" xmlns="http://www.w3.org/2000/svg">
<path d="M12.4 12.8C12.4 10.8118 14.0118 9.2 16 9.2C17.9882 9.2 19.6 10.8118 19.6 12.8C19.6 14.7882 17.9882 16.4 16 16.4C14.0118 16.4 12.4 14.7882 12.4 12.8Z" fill="#222222"/>
<path fill-rule="evenodd" clip-rule="evenodd" d="M0 12.8C0 15.423 0.679943 16.3064 2.03983 18.0731C4.75514 21.6007 9.30898 25.6 16 25.6C22.691 25.6 27.2449 21.6007 29.9602 18.0731C31.3201 16.3064 32 15.423 32 12.8C32 10.177 31.3201 9.29364 29.9602 7.52693C27.2449 3.99929 22.691 0 16 0C9.30898 0 4.75514 3.99929 2.03983 7.52693C0.679943 9.29364 0 10.177 0 12.8ZM16 6.8C12.6863 6.8 10 9.48629 10 12.8C10 16.1137 12.6863 18.8 16 18.8C19.3137 18.8 22 16.1137 22 12.8C22 9.48629 19.3137 6.8 16 6.8Z" fill="#222222"/>
</svg>
