<svg width="32" height="27" viewBox="0 0 32 27" fill="none" xmlns="http://www.w3.org/2000/svg">
<path d="M19.5752 0.0421984C20.231 0.217942 20.6203 0.892107 20.4445 1.54799L13.9306 25.8583C13.7549 26.5142 13.0807 26.9034 12.4248 26.7277C11.7689 26.5519 11.3797 25.8778 11.5554 25.2219L18.0694 0.911567C18.2451 0.255685 18.9193 -0.133545 19.5752 0.0421984Z" fill="#222222"/>
<path d="M23.2826 5.04584C23.7368 4.54113 24.5142 4.50022 25.0189 4.95446L27.8672 7.51789C29.0743 8.6042 30.0755 9.5053 30.7631 10.3226C31.4861 11.182 32 12.1054 32 13.2452C32 14.385 31.4861 15.3083 30.7631 16.1677C30.0756 16.985 29.0743 17.8861 27.8672 18.9724L25.0189 21.5359C24.5142 21.9901 23.7368 21.9492 23.2826 21.4445C22.8283 20.9398 22.8693 20.1624 23.374 19.7081L26.155 17.2052C27.4465 16.0428 28.3173 15.2553 28.8814 14.5848C29.4228 13.9412 29.5411 13.5655 29.5411 13.2452C29.5411 12.9248 29.4228 12.5491 28.8814 11.9055C28.3173 11.235 27.4465 10.4475 26.155 9.28509L23.374 6.78218C22.8693 6.32794 22.8283 5.55055 23.2826 5.04584Z" fill="#222222"/>
<path d="M8.62603 6.78218C9.13074 6.32794 9.17166 5.55055 8.71742 5.04584C8.26318 4.54113 7.48579 4.50022 6.98108 4.95446L4.13282 7.51789C2.92574 8.6042 1.92445 9.5053 1.2369 10.3226C0.513929 11.182 0 12.1054 0 13.2452C0 14.385 0.513929 15.3083 1.2369 16.1677C1.92445 16.985 2.92572 17.8861 4.13279 18.9724L6.98108 21.5359C7.48579 21.9901 8.26318 21.9492 8.71742 21.4445C9.17166 20.9398 9.13074 20.1624 8.62603 19.7081L5.84501 17.2052C4.55345 16.0428 3.68265 15.2553 3.11858 14.5848C2.57719 13.9412 2.45895 13.5655 2.45895 13.2452C2.45895 12.9248 2.57719 12.5491 3.11858 11.9055C3.68266 11.235 4.55345 10.4475 5.84501 9.28509L8.62603 6.78218Z" fill="#222222"/>
</svg>
