<svg width="32" height="32" viewBox="0 0 32 32" fill="none" xmlns="http://www.w3.org/2000/svg">
<path d="M16 0C12.8355 0 9.74207 0.938383 7.11088 2.69649C4.4797 4.45459 2.42894 6.95345 1.21793 9.87706C0.0069327 12.8007 -0.309921 16.0177 0.307443 19.1214C0.924806 22.2251 2.44866 25.0761 4.6863 27.3137C6.92394 29.5513 9.77486 31.0752 12.8786 31.6926C15.9823 32.3099 19.1993 31.9931 22.1229 30.7821C25.0466 29.5711 27.5454 27.5203 29.3035 24.8891C31.0616 22.2579 32 19.1645 32 16C31.9952 11.758 30.308 7.69113 27.3084 4.69159C24.3089 1.69205 20.242 0.00479943 16 0ZM16 1.06667C17.9451 1.06667 19.704 3.62667 20.7781 7.46667H11.2219C12.296 3.62667 14.0549 1.06667 16 1.06667ZM10.1387 15.4667C10.163 13.1334 10.4346 10.8093 10.9488 8.53333H21.0512C21.5654 10.8093 21.837 13.1334 21.8613 15.4667H10.1387ZM21.8613 16.5333C21.837 18.8666 21.5654 21.1907 21.0512 23.4667H10.9488C10.4346 21.1907 10.163 18.8666 10.1387 16.5333H21.8613ZM13.1803 1.33707C11.9003 2.6208 10.8336 4.76213 10.1056 7.46667H3.75574C5.98083 4.27585 9.36131 2.07723 13.1803 1.33707ZM3.07574 8.53333H9.84374C9.35037 10.812 9.09195 13.1353 9.07254 15.4667H1.08001C1.16439 13.0265 1.84992 10.6449 3.07574 8.53333ZM1.08001 16.5333H9.07254C9.09195 18.8647 9.35037 21.188 9.84374 23.4667H3.07574C1.84992 21.3551 1.16439 18.9735 1.08001 16.5333ZM3.75574 24.5333H10.1056C10.8315 27.2379 11.8992 29.3792 13.1803 30.6629C9.36131 29.9228 5.98083 27.7241 3.75574 24.5333ZM16 30.9333C14.0549 30.9333 12.296 28.3733 11.2219 24.5333H20.7781C19.704 28.3733 17.9451 30.9333 16 30.9333ZM18.8197 30.6629C20.0997 29.3792 21.1664 27.2379 21.8944 24.5333H28.2443C26.0192 27.7241 22.6387 29.9228 18.8197 30.6629ZM28.9243 23.4667H22.1563C22.6496 21.188 22.9081 18.8647 22.9275 16.5333H30.92C30.8356 18.9735 30.1501 21.3551 28.9243 23.4667ZM30.92 15.4667H22.9275C22.9081 13.1353 22.6496 10.812 22.1563 8.53333H28.9243C30.1501 10.6449 30.8356 13.0265 30.92 15.4667ZM21.8944 7.46667C21.1685 4.76213 20.1008 2.6208 18.8197 1.33707C22.6387 2.07723 26.0192 4.27585 28.2443 7.46667H21.8944Z" fill="#3935FE"/>
</svg>
