<svg width="80" height="74" viewBox="0 0 80 74" fill="none" xmlns="http://www.w3.org/2000/svg">
<path fill-rule="evenodd" clip-rule="evenodd" d="M2.7907 0C1.24944 0 0 1.24944 0 2.7907C0 4.33196 1.24944 5.5814 2.7907 5.5814H10.2326V41.0322C10.2326 46.0185 10.2326 48.5117 11.2301 50.7101C12.2277 52.9086 14.1041 54.5504 17.8566 57.8339L25.2985 64.3455C32.3033 70.4747 35.8058 73.5393 40 73.5393C44.1943 73.5393 47.6967 70.4747 54.7015 64.3455L62.1434 57.8339C65.896 54.5503 67.7723 52.9086 68.7699 50.7101C69.7674 48.5117 69.7674 46.0185 69.7674 41.0322V5.5814H77.2093C78.7506 5.5814 80 4.33196 80 2.7907C80 1.24944 78.7506 0 77.2093 0H2.7907ZM26.9767 40.9302C25.4355 40.9302 24.186 42.1797 24.186 43.7209C24.186 45.2622 25.4355 46.5116 26.9767 46.5116H53.0233C54.5645 46.5116 55.814 45.2622 55.814 43.7209C55.814 42.1797 54.5645 40.9302 53.0233 40.9302H26.9767ZM24.186 25.1163C24.186 23.575 25.4355 22.3256 26.9767 22.3256H53.0233C54.5645 22.3256 55.814 23.575 55.814 25.1163C55.814 26.6575 54.5645 27.907 53.0233 27.907H26.9767C25.4355 27.907 24.186 26.6575 24.186 25.1163Z" fill="#FE3565"/>
</svg>
