<svg width="81" height="81" viewBox="0 0 81 81" fill="none" xmlns="http://www.w3.org/2000/svg">
<path fill-rule="evenodd" clip-rule="evenodd" d="M40.5 0C18.1325 0 0 18.1325 0 40.5C0 62.8675 18.1325 81 40.5 81C62.8675 81 81 62.8675 81 40.5C81 18.1325 62.8675 0 40.5 0ZM28.2615 23.4885C26.9435 22.1705 24.8065 22.1705 23.4885 23.4885C22.1705 24.8065 22.1705 26.9435 23.4885 28.2615L35.727 40.5L23.4885 52.7385C22.1705 54.0565 22.1705 56.1935 23.4885 57.5115C24.8065 58.8295 26.9435 58.8295 28.2615 57.5115L40.5 45.273L52.7385 57.5115C54.0565 58.8295 56.1935 58.8295 57.5115 57.5115C58.8295 56.1935 58.8295 54.0565 57.5115 52.7385L45.273 40.5L57.5115 28.2615C58.8295 26.9435 58.8295 24.8065 57.5115 23.4885C56.1935 22.1705 54.0565 22.1705 52.7385 23.4885L40.5 35.727L28.2615 23.4885Z" fill="#FE3565"/>
</svg>
