<svg width="5000" height="534" viewBox="0 0 5000 534" fill="none" xmlns="http://www.w3.org/2000/svg">
<path opacity="0.7" fill-rule="evenodd" clip-rule="evenodd" d="M0 459.516L83.4128 472.521C166.826 484.344 333.651 509.172 500.477 459.516C667.302 409.86 834.128 285.719 1000.95 260.891C1167.78 236.063 1332.22 310.547 1499.05 298.724C1665.87 285.719 1832.7 186.407 1999.52 113.105C2166.35 38.6204 2333.17 -11.0358 2500 50.4433C2666.83 113.105 2833.65 285.719 3000.48 348.38C3167.3 409.86 3334.13 360.203 3500.95 260.891C3667.78 161.579 3832.22 13.7923 3999.05 0.787144C4165.87 -11.0358 4332.7 113.105 4499.52 186.407C4666.35 260.891 4833.17 285.719 4916.59 298.724L5000 310.547V534H4916.59C4833.17 534 4666.35 534 4499.52 534C4332.7 534 4165.87 534 3999.05 534C3832.22 534 3667.78 534 3500.95 534C3334.13 534 3167.3 534 3000.48 534C2833.65 534 2666.83 534 2500 534C2333.17 534 2166.35 534 1999.52 534C1832.7 534 1665.87 534 1499.05 534C1332.22 534 1167.78 534 1000.95 534C834.128 534 667.302 534 500.477 534C333.651 534 166.826 534 83.4128 534H0V459.516Z" fill="#3935FE"/>
</svg>
