<svg width="5000" height="915" viewBox="0 0 5000 915" fill="none" xmlns="http://www.w3.org/2000/svg">
<path fill-rule="evenodd" clip-rule="evenodd" d="M91.6667 106.388L0 137.82V515V915H5000V515V74.9568L4908.33 85.434L4905.88 85.7145C4813.35 96.2861 4627.54 117.515 4445.83 190.206C4392.9 210.912 4340.29 235.794 4287.83 260.607C4154.48 323.682 4022.06 386.315 3887.5 378.796C3778.87 372.588 3668.77 318.556 3558.94 264.657C3483.42 227.595 3408.03 190.596 3333.33 169.252C3150 116.866 2962.5 158.774 2779.17 221.638C2735.88 236.15 2692.82 251.779 2649.87 267.365C2506.8 319.292 2365.05 370.738 2220.83 378.796C2037.5 389.273 1850 326.41 1666.67 263.547C1483.33 200.683 1295.83 137.82 1112.5 85.434C925 33.0479 741.667 -8.86096 554.167 1.61622C370.833 12.0935 183.333 74.9568 91.6667 106.388Z" fill="#3935FE"/>
</svg>
