<svg width="5000" height="515" viewBox="0 0 5000 515" fill="none" xmlns="http://www.w3.org/2000/svg">
<path fill-rule="evenodd" clip-rule="evenodd" d="M0 137.82L91.6667 106.388C183.333 74.9568 370.833 12.0934 554.167 1.61623C741.667 -8.86099 925 33.0479 1112.5 85.434C1295.83 137.82 1483.33 200.683 1666.67 263.547C1850 326.41 2037.5 389.273 2220.83 378.796C2408.33 368.319 2591.67 284.501 2779.17 221.638C2962.5 158.775 3150 116.866 3333.33 169.252C3516.67 221.638 3704.17 368.319 3887.5 378.796C4075 389.273 4258.33 263.547 4445.83 190.206C4629.17 116.866 4816.67 95.9112 4908.33 85.434L5000 74.9568V515H4908.33C4816.67 515 4629.17 515 4445.83 515C4258.33 515 4075 515 3887.5 515C3704.17 515 3516.67 515 3333.33 515C3150 515 2962.5 515 2779.17 515C2591.67 515 2408.33 515 2220.83 515C2037.5 515 1850 515 1666.67 515C1483.33 515 1295.83 515 1112.5 515C925 515 741.667 515 554.167 515C370.833 515 183.333 515 91.6667 515H0V137.82Z" fill="#3935FE"/>
</svg>
